<svg width="108" height="28" viewBox="0 0 108 28" fill="none" xmlns="http://www.w3.org/2000/svg">
<path d="M36.8508 3.88572C36.8508 3.80216 36.8508 3.76037 36.9866 3.76037H43.6716C44.807 3.69735 45.9417 3.89739 46.9871 4.34491C48.0325 4.79243 48.9604 5.47533 49.6986 6.34038C51.1714 8.29559 51.9108 10.706 51.7876 13.1508C51.93 15.5401 51.1862 17.898 49.6986 19.7731C48.933 20.5945 47.9937 21.2345 46.9492 21.6466C45.9046 22.0586 44.7813 22.2322 43.6611 22.1547H36.9761C36.9579 22.1563 36.9395 22.1538 36.9223 22.1476C36.9051 22.1413 36.8895 22.1314 36.8766 22.1184C36.8636 22.1055 36.8537 22.0899 36.8474 22.0727C36.8411 22.0555 36.8387 22.0371 36.8403 22.0189L36.8508 3.88572ZM43.7238 5.97479H39.4726C39.3785 5.97479 39.3368 5.97479 39.3368 6.11058V19.7836C39.3368 19.8671 39.3368 19.9089 39.4726 19.9089H43.7238C44.4961 19.953 45.2681 19.8186 45.98 19.5161C46.692 19.2136 47.3246 18.7511 47.8288 18.1645C48.892 16.7099 49.4096 14.9277 49.2912 13.1299C49.3839 11.2733 48.8627 9.43787 47.808 7.90718C47.3341 7.27894 46.715 6.77496 46.0037 6.4384C45.2924 6.10185 44.5101 5.94277 43.7238 5.97479Z" fill="#1E2B3C"/>
<path d="M57.8057 3.88563V6.63277C57.8072 6.651 57.8048 6.66936 57.7986 6.68656C57.7923 6.70376 57.7824 6.71938 57.7694 6.73232C57.7565 6.74526 57.7409 6.75521 57.7237 6.76147C57.7065 6.76773 57.6881 6.77015 57.6699 6.76856H54.9227C54.8392 6.76856 54.7974 6.76855 54.7974 6.63277V3.88563C54.7958 3.86877 54.7979 3.85176 54.8036 3.83582C54.8094 3.81988 54.8185 3.8054 54.8305 3.79342C54.8425 3.78144 54.857 3.77226 54.8729 3.76653C54.8889 3.7608 54.9059 3.75867 54.9227 3.76029H57.6699C57.7534 3.76029 57.8057 3.76029 57.8057 3.88563ZM57.5341 9.10832V22.0606C57.5357 22.0774 57.5336 22.0944 57.5278 22.1104C57.5221 22.1263 57.5129 22.1408 57.5009 22.1528C57.489 22.1648 57.4745 22.1739 57.4585 22.1797C57.4426 22.1854 57.4256 22.1875 57.4087 22.1859H55.1839C55.0899 22.1859 55.0481 22.1859 55.0481 22.0606V9.06653C55.0481 8.98297 55.0481 8.94119 55.1839 8.94119H57.3878C57.4047 8.93957 57.4217 8.9417 57.4377 8.94743C57.4536 8.95316 57.4681 8.96234 57.4801 8.97432C57.492 8.9863 57.5012 9.00078 57.5069 9.01672C57.5127 9.03266 57.5148 9.04967 57.5132 9.06653" fill="#1E2B3C"/>
<path d="M66.9031 25.3614C67.4199 25.41 67.941 25.3414 68.4275 25.1605C68.9141 24.9797 69.3535 24.6912 69.7129 24.3168C70.3217 23.5774 70.641 22.6419 70.6112 21.6846V20.9847C70.6112 20.9325 70.6112 20.9012 70.5172 20.8698C70.4864 20.8604 70.4532 20.8614 70.423 20.8727C70.3928 20.8841 70.3671 20.9051 70.3501 20.9325C69.954 21.3571 69.4689 21.6888 68.9295 21.9039C68.2127 22.2618 67.4223 22.4477 66.6211 22.4471C65.7853 22.4695 64.9545 22.3102 64.1862 21.9802C63.418 21.6502 62.7305 21.1573 62.1714 20.5356C60.961 19.1654 60.3284 17.3797 60.4061 15.5532C60.3226 13.753 60.9234 11.9879 62.0878 10.6125C62.6569 9.98423 63.3568 9.48839 64.1382 9.15993C64.9197 8.83147 65.7636 8.67838 66.6107 8.71144C67.3299 8.72136 68.04 8.87403 68.6997 9.16059C69.3271 9.38743 69.9 9.74326 70.3814 10.2051C70.5068 10.32 70.5903 10.3096 70.6426 10.2051L70.9037 9.16059C70.9037 9.07703 70.9873 9.03525 71.029 9.03525H72.9928C73.0868 9.03525 73.1286 9.03525 73.1286 9.16059V21.695C73.1576 22.4889 73.0202 23.28 72.7252 24.0176C72.4302 24.7552 71.9841 25.4228 71.4155 25.9776C70.8501 26.5208 70.1818 26.9457 69.45 27.2273C68.7182 27.5089 67.9376 27.6416 67.1538 27.6175C65.657 27.6815 64.1766 27.284 62.913 26.479C62.422 26.1884 62.0033 25.7902 61.6884 25.3144C61.3736 24.8385 61.1709 24.2974 61.0955 23.7319C61.0939 23.715 61.096 23.698 61.1018 23.6821C61.1075 23.6661 61.1167 23.6516 61.1286 23.6397C61.1406 23.6277 61.1551 23.6185 61.171 23.6128C61.187 23.607 61.204 23.6049 61.2209 23.6065H63.4979C63.5537 23.6065 63.5954 23.6483 63.6233 23.7319C63.8325 24.2187 64.2008 24.6201 64.6678 24.8704C65.3576 25.2592 66.1437 25.4439 66.9345 25.4031L66.9031 25.3614ZM62.9235 15.5845C62.8616 16.7908 63.232 17.9797 63.968 18.9375C64.315 19.3426 64.7486 19.6646 65.2367 19.8798C65.7248 20.0949 66.2551 20.1977 66.7882 20.1805C67.3212 20.2069 67.8527 20.1049 68.338 19.8831C68.8233 19.6614 69.2483 19.3263 69.5771 18.9061C70.2951 17.9351 70.6632 16.7496 70.6217 15.5427C70.6648 14.3324 70.2966 13.1431 69.5771 12.1689C69.2483 11.7487 68.8233 11.4136 68.338 11.1918C67.8527 10.9701 67.3212 10.8681 66.7882 10.8945C66.2438 10.8723 65.7015 10.9757 65.2034 11.1967C64.7053 11.4177 64.2647 11.7503 63.9158 12.1689C63.1816 13.1356 62.8117 14.3302 62.8712 15.5427" fill="#1E2B3C"/>
<path d="M87.8239 22.1446H85.8602C85.808 22.1446 85.7662 22.1446 85.7244 22.0193L85.4633 20.9747C85.4633 20.8285 85.3275 20.8076 85.2022 20.9225C84.1582 21.817 82.8463 22.3389 81.4732 22.4057C80.6249 22.4438 79.7788 22.2941 78.9951 21.9673C78.2115 21.6405 77.5097 21.1446 76.9399 20.5151C75.7734 19.1286 75.1729 17.3531 75.2582 15.5431C75.1718 13.733 75.7725 11.9572 76.9399 10.5711C77.5105 9.94205 78.2122 9.44579 78.9955 9.11732C79.7787 8.78886 80.6245 8.63619 81.4732 8.67008C82.2632 8.66878 83.0428 8.85116 83.7502 9.2028C84.2877 9.4293 84.7796 9.75135 85.2022 10.1533C85.2753 10.2264 85.3275 10.2473 85.3797 10.216C85.4036 10.2075 85.4244 10.192 85.4394 10.1715C85.4543 10.151 85.4626 10.1265 85.4633 10.1011V3.83388C85.4633 3.75031 85.4633 3.70853 85.5991 3.70853H87.8239C87.8408 3.70692 87.8578 3.70905 87.8738 3.71477C87.8897 3.7205 87.9042 3.72968 87.9162 3.74166C87.9281 3.75364 87.9373 3.76812 87.943 3.78406C87.9488 3.8 87.9509 3.81701 87.9493 3.83388V22.0193C87.9509 22.0361 87.9488 22.0531 87.943 22.0691C87.9373 22.085 87.9281 22.0995 87.9162 22.1115C87.9042 22.1235 87.8897 22.1326 87.8738 22.1384C87.8578 22.1441 87.8408 22.1462 87.8239 22.1446ZM77.7442 15.5431C77.6823 16.7495 78.0527 17.9383 78.7887 18.8961C79.1371 19.3159 79.5773 19.6501 80.0754 19.8729C80.5734 20.0956 81.116 20.201 81.6612 20.1809C82.1956 20.2072 82.7286 20.1053 83.2156 19.8836C83.7026 19.6619 84.1295 19.3269 84.4605 18.9065C85.157 17.9278 85.5029 16.7428 85.4424 15.5431C85.4988 14.3407 85.1533 13.1537 84.4605 12.1693C84.1334 11.7471 83.7088 11.4106 83.223 11.1886C82.7373 10.9667 82.2049 10.8659 81.6716 10.8949C81.1256 10.8727 80.5818 10.976 80.082 11.197C79.5822 11.4179 79.1398 11.7505 78.7887 12.1693C78.0545 13.136 77.6846 14.3307 77.7442 15.5431Z" fill="#1E2B3C"/>
<path d="M94.6255 3.88609V6.63322C94.6271 6.65145 94.6246 6.66981 94.6184 6.68701C94.6121 6.70421 94.6022 6.71983 94.5892 6.73277C94.5763 6.74571 94.5607 6.75566 94.5435 6.76192C94.5263 6.76818 94.5079 6.7706 94.4897 6.76901H91.753C91.659 6.76901 91.6172 6.76901 91.6172 6.63322V3.88609C91.6172 3.80252 91.6172 3.76074 91.753 3.76074H94.4897C94.5837 3.76074 94.6255 3.76074 94.6255 3.88609ZM94.3643 9.10877V22.061C94.3643 22.1446 94.3643 22.1864 94.2285 22.1864H92.0037C91.9868 22.188 91.9698 22.1859 91.9539 22.1801C91.9379 22.1744 91.9234 22.1652 91.9115 22.1532C91.8995 22.1413 91.8903 22.1268 91.8846 22.1108C91.8788 22.0949 91.8767 22.0779 91.8783 22.061V9.06699C91.8767 9.05012 91.8788 9.03311 91.8846 9.01717C91.8903 9.00123 91.8995 8.98675 91.9115 8.97477C91.9234 8.96279 91.9379 8.95361 91.9539 8.94788C91.9698 8.94216 91.9868 8.94003 92.0037 8.94164H94.2285C94.3225 8.94164 94.3643 8.94164 94.3643 9.06699" fill="#1E2B3C"/>
<path d="M105.287 10.8943H103.961C103.481 10.8816 103.004 10.9796 102.567 11.1806C102.131 11.3817 101.746 11.6804 101.444 12.0538C100.806 12.8401 100.476 13.8311 100.514 14.8427V22.0186C100.516 22.0369 100.513 22.0552 100.507 22.0724C100.501 22.0896 100.491 22.1053 100.478 22.1182C100.465 22.1311 100.449 22.1411 100.432 22.1474C100.415 22.1536 100.396 22.156 100.378 22.1544H98.122C98.0384 22.1544 97.9966 22.1022 97.9966 22.0186V9.06639C97.995 9.04953 97.9971 9.03252 98.0029 9.01657C98.0086 9.00063 98.0178 8.98615 98.0297 8.97417C98.0417 8.9622 98.0562 8.95301 98.0721 8.94729C98.0881 8.94156 98.1051 8.93943 98.122 8.94105H100.086C100.086 8.94105 100.18 8.94105 100.221 9.06639L100.483 10.2363C100.538 10.3964 100.632 10.3964 100.765 10.2363C101.156 9.77675 101.634 9.39902 102.172 9.12478C102.71 8.85053 103.296 8.68515 103.898 8.63813H105.225C105.242 8.63668 105.26 8.63885 105.276 8.6445C105.292 8.65015 105.308 8.65915 105.32 8.67094C105.333 8.68272 105.343 8.69704 105.35 8.71297C105.357 8.7289 105.361 8.7461 105.361 8.76348V10.7272C105.361 10.8212 105.361 10.863 105.225 10.863" fill="#1E2B3C"/>
<path d="M13.2343 0H0.522268C0.384591 0.00267409 0.253299 0.0585573 0.155928 0.155928C0.0585573 0.253299 0.00267409 0.384591 0 0.522268V25.3196C0.00267409 25.4572 0.0585573 25.5885 0.155928 25.6859C0.253299 25.7833 0.384591 25.8392 0.522268 25.8418H13.2343C16.6611 25.8418 19.9476 24.4805 22.3707 22.0574C24.7939 19.6342 26.1552 16.3478 26.1552 12.9209C26.1552 9.49408 24.7939 6.20759 22.3707 3.78445C19.9476 1.36131 16.6611 5.10639e-08 13.2343 0ZM14.4773 21.9353C12.5539 22.2663 10.5751 21.9765 8.82744 21.1079C7.07975 20.2394 5.65387 18.8371 4.75626 17.1041C3.85866 15.3712 3.53593 13.3975 3.83479 11.4689C4.13366 9.54028 5.03862 7.75685 6.41862 6.37684C7.79863 4.99684 9.58206 4.09188 11.5107 3.79301C13.4393 3.49414 15.4129 3.81688 17.1459 4.71448C18.8789 5.61209 20.2811 7.03797 21.1497 8.78566C22.0183 10.5334 22.308 12.5121 21.977 14.4355C21.6549 16.3072 20.7609 18.0332 19.418 19.3762C18.075 20.7192 16.349 21.6131 14.4773 21.9353Z" fill="#C2132C"/>
</svg>
