<svg width="5271" height="884" viewBox="0 0 5271 884" fill="none" xmlns="http://www.w3.org/2000/svg">
<path d="M583.713 642.148L583.479 645.785C583.479 645.903 583.479 646.02 583.479 646.255C583.831 646.255 584.065 646.254 584.417 646.137C584.182 644.847 583.948 643.439 583.713 642.148Z" fill="#E5AA20"/>
<path d="M566.467 500.43C566.467 500.43 561.891 494.564 558.489 489.754C559.193 491.631 559.78 493.508 560.366 495.385C563.769 498.201 566.467 500.43 566.467 500.43Z" fill="#E5AA20"/>
<path d="M653.634 457.608L663.255 456.552L665.601 477.904C670.294 480.955 676.042 482.362 682.025 481.776C696.104 480.251 706.31 467.58 704.785 453.502L704.316 449.044C704.668 449.396 705.137 449.631 705.607 449.748C708.07 450.335 710.886 447.402 711.824 443.296C712.763 439.189 711.472 435.435 709.009 434.849C707.601 434.497 706.076 435.318 704.785 436.843C704.198 437.664 702.791 437.312 702.556 436.374C699.506 424.173 687.774 415.726 674.869 417.134C660.791 418.659 650.584 431.329 652.109 445.407L653.634 457.608Z" fill="#1E2B3C"/>
<path d="M636.035 717.704C627.119 713.48 618.79 707.732 611.751 700.692C604.712 693.653 598.963 685.441 594.505 676.525C590.047 667.609 586.996 658.223 584.885 648.486C584.767 647.665 584.533 646.961 584.415 646.14C584.063 646.14 583.829 646.14 583.477 646.257C583.242 650.598 583.008 654.821 582.656 659.162L581.717 672.419L579.723 699.05C579.136 707.966 578.432 716.765 577.494 725.681C578.08 716.765 578.198 707.849 578.55 699.05L579.488 672.419L579.958 659.045C580.075 654.587 580.31 650.129 580.544 645.67L581.952 619.039L584.885 619.157C584.767 623.849 585.002 628.777 585.471 633.587C585.94 638.397 586.645 643.207 587.701 647.899C589.695 657.402 592.745 666.553 597.086 675.235C601.427 683.799 606.94 691.894 613.745 698.581C620.549 705.385 628.527 710.899 637.209 715.005C645.89 719.111 655.275 721.81 664.778 723.335C669.588 724.156 674.399 724.625 679.209 724.86C684.019 725.095 688.946 725.212 693.639 724.977C703.141 724.391 712.409 721.223 720.387 715.827C728.364 710.547 734.934 703.391 740.448 695.413C745.962 687.436 750.303 678.754 753.822 669.721C757.342 660.687 760.041 651.302 761.8 641.799C762.622 636.989 763.325 632.296 763.325 627.486L763.443 620.212C763.56 617.749 763.443 615.402 763.443 612.939C763.325 603.201 762.973 593.464 762.035 583.844C761.096 574.224 759.571 564.604 757.225 555.101C756.756 552.755 755.934 550.408 755.348 548.062C754.644 545.716 753.823 543.486 753.119 541.14C751.594 536.565 749.834 531.989 747.722 527.649C745.61 523.308 743.264 519.084 740.448 515.096C737.633 511.107 734.465 507.47 730.945 504.185C729.538 502.894 728.013 501.604 726.37 500.548C718.275 495.034 710.532 493.04 704.901 492.571C668.298 490.224 651.873 532.811 661.376 577.509L658.912 585.017L658.091 584.43C648.589 554.749 628.644 518.615 587.935 516.973C587.466 515.565 587.114 514.274 586.644 513.453C584.415 508.878 577.846 493.04 573.974 488.112C570.103 483.185 559.075 478.727 556.142 477.671C555.32 477.437 554.734 477.436 554.265 477.788C553.209 478.727 553.444 481.308 554.852 484.124C555.438 485.297 556.729 487.174 558.136 489.286C561.539 494.096 566.114 499.962 566.114 499.962C566.114 499.962 563.416 497.733 560.014 494.917C554.969 490.694 548.399 485.062 546.287 482.833C545.935 482.481 545.583 482.012 545.349 481.66C542.768 477.788 542.768 472.744 540.774 468.872C538.544 464.649 532.678 464.297 532.678 464.297C530.097 467.23 536.55 495.504 536.55 495.504L533.969 505.945L538.544 529.291C542.65 533.045 546.756 536.917 550.862 540.671L563.064 552.168L563.181 552.285L563.298 552.52C575.265 574.341 588.756 595.576 605.65 613.76C609.874 618.335 614.332 622.559 619.142 626.548C620.315 627.486 621.488 628.542 622.779 629.481L626.532 632.296L630.404 634.877C631.695 635.698 633.102 636.402 634.393 637.224C639.79 640.156 645.421 642.62 651.404 643.911C654.337 644.615 657.388 644.966 660.438 644.966C661.963 644.966 663.488 644.966 665.013 644.849L669.588 644.263L671.935 644.028C672.756 643.911 673.46 643.793 674.164 643.559L678.739 642.62C680.264 642.268 681.672 641.799 683.197 641.33C684.722 640.86 686.13 640.508 687.538 639.922L691.879 638.279C693.287 637.575 694.577 636.872 695.985 636.285C696.689 635.933 697.393 635.581 697.98 635.229L699.974 634.056L701.968 632.883L702.907 632.296L703.845 631.592L707.482 628.894C708.655 627.955 709.829 626.9 710.884 625.844C712.058 624.905 713.113 623.732 714.169 622.559L715.812 620.916C716.398 620.33 716.75 619.743 717.337 619.157C721.326 614.464 724.728 609.302 727.661 603.905C730.594 598.509 733.057 592.76 735.052 586.894C735.99 583.961 737.046 581.028 737.75 577.978C738.219 576.453 738.454 574.928 738.923 573.52C739.158 572.816 739.275 571.995 739.51 571.291L740.097 569.062C743.029 556.978 744.672 544.542 745.024 531.989C745.493 538.207 745.376 544.542 744.907 550.76C744.555 556.978 743.733 563.313 742.677 569.531C742.443 571.056 742.091 572.699 741.739 574.224C741.387 575.749 741.035 577.274 740.566 578.799C739.744 581.85 738.806 584.9 737.75 587.833C735.756 593.816 733.175 599.682 730.125 605.196C727.074 610.827 723.555 616.106 719.448 620.916C718.979 621.503 718.51 622.207 717.924 622.676L716.281 624.436C715.107 625.609 714.052 626.782 712.879 627.838C711.705 628.894 710.532 629.95 709.242 631.006L705.37 633.821L704.432 634.525L703.376 635.112L701.382 636.402L699.387 637.693C698.683 638.162 697.979 638.397 697.276 638.749C695.868 639.453 694.46 640.156 692.935 640.86L688.477 642.62C686.952 643.207 685.427 643.676 683.901 644.145C682.376 644.615 680.851 645.084 679.326 645.436L674.633 646.374C673.812 646.492 673.108 646.726 672.286 646.844L669.94 647.078L665.247 647.665C663.605 647.782 661.963 647.782 660.438 647.782C657.27 647.665 653.985 647.313 650.817 646.609C644.482 645.201 638.616 642.737 632.985 639.57C631.577 638.749 630.169 638.045 628.879 637.106L624.89 634.408L621.019 631.592C619.728 630.654 618.555 629.598 617.382 628.659C612.572 624.553 607.996 620.212 603.655 615.637C595.091 606.369 587.348 596.397 580.309 585.956C576.79 580.794 573.387 575.397 570.22 570C568.577 567.302 567.052 564.604 565.527 561.788C564.119 559.09 562.712 556.274 561.421 553.458L550.159 541.375C546.874 537.973 543.706 534.453 540.539 531.051C516.723 551.112 508.394 592.408 514.26 646.257C515.315 650.715 514.963 655.408 513.673 659.866C512.031 664.207 509.684 668.195 506.751 671.832C503.936 675.469 500.533 678.637 497.014 681.452C495.137 682.86 493.377 684.268 491.5 685.441C490.561 686.028 489.623 686.732 488.567 687.318L485.634 688.961L484.109 689.782L482.584 690.486L479.533 692.011C477.422 692.95 475.31 693.771 473.198 694.592C469.209 696.117 465.455 698.346 462.64 701.514C459.824 704.681 457.947 708.553 457.008 712.776C455.718 716.882 455.131 721.34 455.248 725.799C453.958 721.458 453.606 716.765 454.193 712.19C455.248 707.614 457.243 703.156 460.411 699.637C463.578 696 467.802 693.536 472.143 692.011C474.137 691.19 476.248 690.369 478.243 689.43L481.176 688.022L482.701 687.318L484.109 686.497L487.042 684.855C487.98 684.268 488.919 683.681 489.857 683.095C491.734 681.922 493.494 680.631 495.254 679.223C498.656 676.408 501.824 673.475 504.522 670.073C507.22 666.67 509.449 662.916 510.974 658.927C512.03 656.816 512.852 654.704 513.438 652.358C447.505 658.927 387.087 665.145 371.132 664.441C357.64 663.737 345.674 646.492 343.679 620.799C342.389 604.14 311.182 597.922 311.182 597.922V727.441L671.113 727.206C668.884 726.972 666.538 726.62 664.309 726.268C654.572 724.743 644.951 721.927 636.035 717.704Z" fill="#1E2B3C"/>
<path d="M751.595 530.111L749.953 526.826C747.607 522.485 745.025 518.262 742.092 514.273C739.042 510.402 735.758 506.647 731.886 503.48C728.132 500.312 723.908 497.614 719.333 495.737C717.104 494.798 714.757 493.977 712.294 493.508C709.947 493.039 707.484 492.687 705.02 492.804C707.484 492.804 709.83 493.273 712.294 493.86C714.64 494.446 716.987 495.268 719.099 496.324C721.68 497.497 724.143 499.022 726.489 500.782C728.132 501.955 729.657 503.128 731.065 504.418C734.701 507.703 737.752 511.34 740.568 515.329C743.383 519.318 745.73 523.541 747.841 527.882C749.953 532.223 751.595 536.798 753.238 541.374C753.942 543.72 754.763 545.949 755.467 548.295C756.054 550.642 756.874 552.988 757.344 555.334C759.573 564.72 761.098 574.34 762.154 584.077C763.21 593.697 763.562 603.435 763.562 613.172C763.562 615.636 763.562 617.982 763.562 620.446L763.444 627.72C763.444 632.53 762.741 637.34 761.92 642.032C760.16 651.535 757.461 660.921 753.942 669.954C750.422 678.988 746.081 687.669 740.568 695.647C735.054 703.507 728.484 710.663 720.506 716.06C712.528 721.339 703.378 724.624 693.758 725.211C689.065 725.445 684.137 725.328 679.327 725.093C674.517 724.859 669.707 724.272 664.897 723.568C655.395 722.043 646.009 719.345 637.328 715.239C628.646 711.133 620.669 705.619 613.864 698.814C607.06 692.01 601.546 684.032 597.205 675.468C592.864 666.786 589.814 657.636 587.819 648.133C586.763 643.44 586.06 638.63 585.59 633.82C585.121 629.01 584.887 624.083 585.004 619.39L582.071 619.273L580.663 645.904C580.429 650.362 580.194 654.82 580.077 659.278L579.607 672.652L578.669 699.284C578.317 708.2 578.2 717.116 577.613 725.915C578.552 717.116 579.138 708.2 579.842 699.284L581.837 672.652L582.775 659.395C583.127 655.055 583.362 650.831 583.596 646.49C583.596 646.373 583.596 646.256 583.596 646.021L583.831 642.384C584.065 643.675 584.3 644.965 584.535 646.373C584.652 647.194 584.887 647.898 585.004 648.72C587.116 658.34 590.166 667.842 594.624 676.759C599.082 685.675 604.83 693.887 611.87 700.926C618.909 707.965 627.238 713.714 636.155 717.937C645.188 722.161 654.691 724.976 664.546 726.501C666.775 726.853 669.004 727.205 671.35 727.44C674.048 727.792 676.629 727.909 679.327 728.144C684.255 728.378 689.182 728.496 694.109 728.261C704.082 727.674 713.936 724.272 722.266 718.641C730.595 713.127 737.517 705.619 743.149 697.524C748.78 689.311 753.238 680.513 756.757 671.245C760.277 662.094 763.093 652.591 764.853 642.854C765.674 638.044 766.378 632.999 766.495 628.072L766.612 620.681C766.73 618.217 766.612 615.753 766.612 613.289C766.495 603.435 766.143 593.697 765.204 583.843C764.266 574.105 762.74 564.368 760.394 554.748C759.808 552.284 759.104 549.938 758.517 547.591C757.813 545.245 757.109 542.899 756.288 540.552C755.349 538.206 754.528 535.977 753.472 533.631C752.651 532.34 752.182 531.167 751.595 530.111Z" fill="#EDCFC5"/>
<path d="M560.365 495.385C559.779 493.508 559.075 491.631 558.488 489.754C556.963 487.642 555.79 485.765 555.203 484.592C553.796 481.776 553.561 479.195 554.617 478.256C549.924 464.296 545.583 451.391 545.114 449.866C544.058 446.346 541.242 444 539.717 443.648C538.192 443.296 536.667 443.882 536.667 443.882L534.79 445.994C534.79 445.994 535.025 445.877 535.377 445.759C534.79 445.994 534.438 446.698 534.673 447.284L545.818 481.893C546.053 482.362 546.404 482.714 546.756 483.066C548.751 485.53 555.321 491.161 560.365 495.385Z" fill="white"/>
<path d="M561.541 554.042C562.832 556.858 564.24 559.674 565.647 562.372C567.173 565.188 568.815 567.769 570.34 570.584C573.508 575.981 576.91 581.26 580.43 586.54C587.469 596.981 595.212 606.953 603.776 616.221C608.117 620.796 612.692 625.255 617.502 629.243C618.793 630.182 619.966 631.238 621.139 632.176L625.01 634.992L628.999 637.69C630.29 638.629 631.697 639.333 633.105 640.154C638.619 643.204 644.603 645.785 650.938 647.193C654.105 647.897 657.273 648.249 660.558 648.366C662.2 648.366 663.843 648.366 665.368 648.249L670.06 647.662L672.407 647.428C673.228 647.31 673.932 647.076 674.753 646.958L679.446 646.02C680.971 645.668 682.496 645.199 684.021 644.729C685.546 644.26 687.072 643.908 688.597 643.204L693.055 641.444C694.463 640.74 695.871 640.037 697.396 639.333C698.1 638.981 698.803 638.629 699.507 638.277L701.502 636.986L703.496 635.696L704.552 635.109L705.491 634.405L709.362 631.59C710.535 630.534 711.708 629.478 712.999 628.422C714.289 627.366 715.345 626.193 716.401 625.02L718.043 623.26C718.63 622.673 719.099 622.087 719.569 621.5C723.792 616.69 727.312 611.294 730.245 605.78C733.295 600.149 735.876 594.4 737.87 588.417C738.926 585.366 739.865 582.434 740.686 579.383C741.155 577.858 741.507 576.333 741.859 574.808C742.211 573.283 742.446 571.758 742.797 570.115C743.853 563.897 744.557 557.679 745.026 551.344C745.378 545.126 745.496 538.791 745.144 532.573C744.792 545.126 743.15 557.562 740.217 569.646L739.63 571.875C739.396 572.579 739.161 573.4 739.044 574.104C738.692 575.629 738.34 577.154 737.87 578.562C737.167 581.612 736.11 584.545 735.172 587.478C733.177 593.344 730.714 598.975 727.781 604.489C724.848 609.886 721.446 615.048 717.457 619.74C716.987 620.327 716.518 620.914 715.932 621.5L714.289 623.143C713.234 624.199 712.177 625.372 711.004 626.428C709.831 627.484 708.775 628.422 707.602 629.478L703.965 632.176L703.027 632.88L702.089 633.467L700.094 634.64L698.099 635.813C697.395 636.165 696.692 636.517 696.105 636.869C694.697 637.573 693.407 638.277 691.999 638.863L687.658 640.506C686.25 641.092 684.725 641.562 683.318 641.914C681.793 642.383 680.384 642.852 678.859 643.204L674.284 644.143C673.58 644.26 672.759 644.495 672.055 644.612L669.709 644.847L665.133 645.433C663.608 645.55 662.083 645.55 660.558 645.55C657.507 645.433 654.457 645.081 651.524 644.495C645.541 643.204 639.91 640.858 634.513 637.807C633.223 636.986 631.815 636.282 630.525 635.461L626.653 632.88L622.899 630.065C621.608 629.126 620.552 628.07 619.262 627.132C614.569 623.143 609.994 618.802 605.77 614.344C588.877 596.16 575.385 574.808 563.419 553.104L563.301 552.869L563.184 552.752L550.983 541.255C546.877 537.383 542.77 533.629 538.664 529.875C539.251 530.462 539.837 531.165 540.424 531.752C543.592 535.272 546.877 538.674 550.044 542.076L561.541 554.042Z" fill="#EDCFC5"/>
<path d="M504.639 670.655C501.941 674.058 498.774 677.108 495.371 679.806C493.612 681.097 491.852 682.504 489.975 683.678C489.036 684.264 488.098 684.851 487.159 685.437L484.226 687.08L482.818 687.901L481.293 688.605L478.36 690.013C476.366 690.951 474.254 691.655 472.26 692.594C467.919 694.236 463.695 696.7 460.528 700.219C457.36 703.739 455.249 708.197 454.31 712.772C453.724 717.465 454.075 722.041 455.366 726.381C455.249 721.923 455.835 717.465 457.126 713.359C458.064 709.253 459.824 705.264 462.757 702.097C465.573 698.929 469.21 696.7 473.316 695.175C475.428 694.354 477.539 693.532 479.651 692.594L482.701 691.069L484.226 690.365L485.751 689.543L488.684 687.901C489.623 687.315 490.561 686.728 491.617 686.024C493.611 684.851 495.371 683.443 497.131 682.035C500.651 679.102 504.053 676.052 506.868 672.415C509.684 668.778 512.148 664.789 513.791 660.449C514.964 655.991 515.316 651.181 514.377 646.84C514.26 648.952 514.025 650.946 513.556 652.94C512.969 655.287 512.148 657.398 511.092 659.51C509.567 663.499 507.338 667.253 504.639 670.655Z" fill="#EDCFC5"/>
<path d="M1081.26 42.1853C859.88 87.1181 716.869 303.335 761.919 524.949C797.701 700.808 941.064 827.394 1109.41 849.567H1215V37.3753C1171.71 31.7441 1126.54 33.0345 1081.26 42.1853Z" fill="#F45F63"/>
<path d="M697.511 729.785H20V849.567H697.511V729.785Z" fill="white"/>
<path d="M1928.71 642.148L1928.48 645.785C1928.48 645.903 1928.48 646.02 1928.48 646.255C1928.83 646.255 1929.07 646.254 1929.42 646.137C1929.18 644.847 1928.95 643.439 1928.71 642.148Z" fill="#E5AA20"/>
<path d="M1911.47 500.43C1911.47 500.43 1906.89 494.564 1903.49 489.754C1904.19 491.631 1904.78 493.508 1905.37 495.385C1908.77 498.201 1911.47 500.43 1911.47 500.43Z" fill="#E5AA20"/>
<path d="M1998.63 457.608L2008.25 456.552L2010.6 477.904C2015.29 480.955 2021.04 482.362 2027.03 481.776C2041.1 480.251 2051.31 467.58 2049.79 453.502L2049.32 449.044C2049.67 449.396 2050.14 449.631 2050.61 449.748C2053.07 450.335 2055.89 447.402 2056.82 443.296C2057.76 439.189 2056.47 435.435 2054.01 434.849C2052.6 434.497 2051.08 435.318 2049.79 436.843C2049.2 437.664 2047.79 437.312 2047.56 436.374C2044.51 424.173 2032.77 415.726 2019.87 417.134C2005.79 418.659 1995.58 431.329 1997.11 445.407L1998.63 457.608Z" fill="#1E2B3C"/>
<path d="M1981.04 717.704C1972.12 713.48 1963.79 707.732 1956.75 700.692C1949.71 693.653 1943.96 685.441 1939.5 676.525C1935.05 667.609 1932 658.223 1929.88 648.486C1929.77 647.665 1929.53 646.961 1929.42 646.14C1929.06 646.14 1928.83 646.14 1928.48 646.257C1928.24 650.598 1928.01 654.821 1927.66 659.162L1926.72 672.419L1924.72 699.05C1924.14 707.966 1923.43 716.765 1922.49 725.681C1923.08 716.765 1923.2 707.849 1923.55 699.05L1924.49 672.419L1924.96 659.045C1925.07 654.587 1925.31 650.129 1925.54 645.67L1926.95 619.039L1929.88 619.157C1929.77 623.849 1930 628.777 1930.47 633.587C1930.94 638.397 1931.64 643.207 1932.7 647.899C1934.7 657.402 1937.75 666.553 1942.09 675.235C1946.43 683.799 1951.94 691.894 1958.74 698.581C1965.55 705.385 1973.53 710.899 1982.21 715.005C1990.89 719.111 2000.28 721.81 2009.78 723.335C2014.59 724.156 2019.4 724.625 2024.21 724.86C2029.02 725.095 2033.95 725.212 2038.64 724.977C2048.14 724.391 2057.41 721.223 2065.39 715.827C2073.36 710.547 2079.93 703.391 2085.45 695.413C2090.96 687.436 2095.3 678.754 2098.82 669.721C2102.34 660.687 2105.04 651.302 2106.8 641.799C2107.62 636.989 2108.33 632.296 2108.33 627.486L2108.44 620.212C2108.56 617.749 2108.44 615.402 2108.44 612.939C2108.33 603.201 2107.97 593.464 2107.03 583.844C2106.1 574.224 2104.57 564.604 2102.23 555.101C2101.76 552.755 2100.93 550.408 2100.35 548.062C2099.64 545.716 2098.82 543.486 2098.12 541.14C2096.59 536.565 2094.83 531.989 2092.72 527.649C2090.61 523.308 2088.26 519.084 2085.45 515.096C2082.63 511.107 2079.46 507.47 2075.95 504.185C2074.54 502.894 2073.01 501.604 2071.37 500.548C2063.28 495.034 2055.53 493.04 2049.9 492.571C2013.3 490.224 1996.87 532.811 2006.38 577.509L2003.91 585.017L2003.09 584.43C1993.59 554.749 1973.64 518.615 1932.93 516.973C1932.47 515.565 1932.11 514.274 1931.64 513.453C1929.42 508.878 1922.85 493.04 1918.97 488.112C1915.1 483.185 1904.07 478.727 1901.14 477.671C1900.32 477.437 1899.73 477.436 1899.27 477.788C1898.21 478.727 1898.44 481.308 1899.85 484.124C1900.44 485.297 1901.73 487.174 1903.14 489.286C1906.54 494.096 1911.11 499.962 1911.11 499.962C1911.11 499.962 1908.42 497.733 1905.01 494.917C1899.97 490.694 1893.4 485.062 1891.29 482.833C1890.94 482.481 1890.58 482.012 1890.35 481.66C1887.77 477.788 1887.77 472.744 1885.77 468.872C1883.54 464.649 1877.68 464.297 1877.68 464.297C1875.1 467.23 1881.55 495.504 1881.55 495.504L1878.97 505.945L1883.54 529.291C1887.65 533.045 1891.76 536.917 1895.86 540.671L1908.06 552.168L1908.18 552.285L1908.3 552.52C1920.26 574.341 1933.76 595.576 1950.65 613.76C1954.87 618.335 1959.33 622.559 1964.14 626.548C1965.31 627.486 1966.49 628.542 1967.78 629.481L1971.53 632.296L1975.4 634.877C1976.69 635.698 1978.1 636.402 1979.39 637.224C1984.79 640.156 1990.42 642.62 1996.4 643.911C1999.34 644.615 2002.39 644.966 2005.44 644.966C2006.96 644.966 2008.49 644.966 2010.01 644.849L2014.59 644.263L2016.93 644.028C2017.76 643.911 2018.46 643.793 2019.16 643.559L2023.74 642.62C2025.26 642.268 2026.67 641.799 2028.2 641.33C2029.72 640.86 2031.13 640.508 2032.54 639.922L2036.88 638.279C2038.29 637.575 2039.58 636.872 2040.98 636.285C2041.69 635.933 2042.39 635.581 2042.98 635.229L2044.97 634.056L2046.97 632.883L2047.91 632.296L2048.85 631.592L2052.48 628.894C2053.65 627.955 2054.83 626.9 2055.88 625.844C2057.06 624.905 2058.11 623.732 2059.17 622.559L2060.81 620.916C2061.4 620.33 2061.75 619.743 2062.34 619.157C2066.33 614.464 2069.73 609.302 2072.66 603.905C2075.59 598.509 2078.06 592.76 2080.05 586.894C2080.99 583.961 2082.05 581.028 2082.75 577.978C2083.22 576.453 2083.45 574.928 2083.92 573.52C2084.16 572.816 2084.28 571.995 2084.51 571.291L2085.1 569.062C2088.03 556.978 2089.67 544.542 2090.02 531.989C2090.49 538.207 2090.38 544.542 2089.91 550.76C2089.55 556.978 2088.73 563.313 2087.68 569.531C2087.44 571.056 2087.09 572.699 2086.74 574.224C2086.39 575.749 2086.03 577.274 2085.57 578.799C2084.74 581.85 2083.81 584.9 2082.75 587.833C2080.76 593.816 2078.17 599.682 2075.12 605.196C2072.07 610.827 2068.55 616.106 2064.45 620.916C2063.98 621.503 2063.51 622.207 2062.92 622.676L2061.28 624.436C2060.11 625.609 2059.05 626.782 2057.88 627.838C2056.71 628.894 2055.53 629.95 2054.24 631.006L2050.37 633.821L2049.43 634.525L2048.38 635.112L2046.38 636.402L2044.39 637.693C2043.68 638.162 2042.98 638.397 2042.28 638.749C2040.87 639.453 2039.46 640.156 2037.93 640.86L2033.48 642.62C2031.95 643.207 2030.43 643.676 2028.9 644.145C2027.38 644.615 2025.85 645.084 2024.33 645.436L2019.63 646.374C2018.81 646.492 2018.11 646.726 2017.29 646.844L2014.94 647.078L2010.25 647.665C2008.6 647.782 2006.96 647.782 2005.44 647.782C2002.27 647.665 1998.99 647.313 1995.82 646.609C1989.48 645.201 1983.62 642.737 1977.98 639.57C1976.58 638.749 1975.17 638.045 1973.88 637.106L1969.89 634.408L1966.02 631.592C1964.73 630.654 1963.56 629.598 1962.38 628.659C1957.57 624.553 1953 620.212 1948.66 615.637C1940.09 606.369 1932.35 596.397 1925.31 585.956C1921.79 580.794 1918.39 575.397 1915.22 570C1913.58 567.302 1912.05 564.604 1910.53 561.788C1909.12 559.09 1907.71 556.274 1906.42 553.458L1895.16 541.375C1891.87 537.973 1888.71 534.453 1885.54 531.051C1861.72 551.112 1853.39 592.408 1859.26 646.257C1860.32 650.715 1859.96 655.408 1858.67 659.866C1857.03 664.207 1854.68 668.195 1851.75 671.832C1848.94 675.469 1845.53 678.637 1842.01 681.452C1840.14 682.86 1838.38 684.268 1836.5 685.441C1835.56 686.028 1834.62 686.732 1833.57 687.318L1830.63 688.961L1829.11 689.782L1827.58 690.486L1824.53 692.011C1822.42 692.95 1820.31 693.771 1818.2 694.592C1814.21 696.117 1810.46 698.346 1807.64 701.514C1804.82 704.681 1802.95 708.553 1802.01 712.776C1800.72 716.882 1800.13 721.34 1800.25 725.799C1798.96 721.458 1798.61 716.765 1799.19 712.19C1800.25 707.614 1802.24 703.156 1805.41 699.637C1808.58 696 1812.8 693.536 1817.14 692.011C1819.14 691.19 1821.25 690.369 1823.24 689.43L1826.18 688.022L1827.7 687.318L1829.11 686.497L1832.04 684.855C1832.98 684.268 1833.92 683.681 1834.86 683.095C1836.73 681.922 1838.49 680.631 1840.25 679.223C1843.66 676.408 1846.82 673.475 1849.52 670.073C1852.22 666.67 1854.45 662.916 1855.97 658.927C1857.03 656.816 1857.85 654.704 1858.44 652.358C1792.51 658.927 1732.09 665.145 1716.13 664.441C1702.64 663.737 1690.67 646.492 1688.68 620.799C1687.39 604.14 1656.18 597.922 1656.18 597.922V727.441L2016.11 727.206C2013.88 726.972 2011.54 726.62 2009.31 726.268C1999.57 724.743 1989.95 721.927 1981.04 717.704Z" fill="#1E2B3C"/>
<path d="M2096.6 530.111L2094.95 526.826C2092.61 522.485 2090.03 518.262 2087.09 514.273C2084.04 510.402 2080.76 506.647 2076.89 503.48C2073.13 500.312 2068.91 497.614 2064.33 495.737C2062.1 494.798 2059.76 493.977 2057.29 493.508C2054.95 493.039 2052.48 492.687 2050.02 492.804C2052.48 492.804 2054.83 493.273 2057.29 493.86C2059.64 494.446 2061.99 495.268 2064.1 496.324C2066.68 497.497 2069.14 499.022 2071.49 500.782C2073.13 501.955 2074.66 503.128 2076.06 504.418C2079.7 507.703 2082.75 511.34 2085.57 515.329C2088.38 519.318 2090.73 523.541 2092.84 527.882C2094.95 532.223 2096.59 536.798 2098.24 541.374C2098.94 543.72 2099.76 545.949 2100.47 548.295C2101.05 550.642 2101.87 552.988 2102.34 555.334C2104.57 564.72 2106.1 574.34 2107.15 584.077C2108.21 593.697 2108.56 603.435 2108.56 613.172C2108.56 615.636 2108.56 617.982 2108.56 620.446L2108.44 627.72C2108.44 632.53 2107.74 637.34 2106.92 642.032C2105.16 651.535 2102.46 660.921 2098.94 669.954C2095.42 678.988 2091.08 687.669 2085.57 695.647C2080.05 703.507 2073.48 710.663 2065.51 716.06C2057.53 721.339 2048.38 724.624 2038.76 725.211C2034.06 725.445 2029.14 725.328 2024.33 725.093C2019.52 724.859 2014.71 724.272 2009.9 723.568C2000.39 722.043 1991.01 719.345 1982.33 715.239C1973.65 711.133 1965.67 705.619 1958.86 698.814C1952.06 692.01 1946.55 684.032 1942.2 675.468C1937.86 666.786 1934.81 657.636 1932.82 648.133C1931.76 643.44 1931.06 638.63 1930.59 633.82C1930.12 629.01 1929.89 624.083 1930 619.39L1927.07 619.273L1925.66 645.904C1925.43 650.362 1925.19 654.82 1925.08 659.278L1924.61 672.652L1923.67 699.284C1923.32 708.2 1923.2 717.116 1922.61 725.915C1923.55 717.116 1924.14 708.2 1924.84 699.284L1926.84 672.652L1927.77 659.395C1928.13 655.055 1928.36 650.831 1928.6 646.49C1928.6 646.373 1928.6 646.256 1928.6 646.021L1928.83 642.384C1929.07 643.675 1929.3 644.965 1929.53 646.373C1929.65 647.194 1929.89 647.898 1930 648.72C1932.12 658.34 1935.17 667.842 1939.62 676.759C1944.08 685.675 1949.83 693.887 1956.87 700.926C1963.91 707.965 1972.24 713.714 1981.15 717.937C1990.19 722.161 1999.69 724.976 2009.55 726.501C2011.77 726.853 2014 727.205 2016.35 727.44C2019.05 727.792 2021.63 727.909 2024.33 728.144C2029.25 728.378 2034.18 728.496 2039.11 728.261C2049.08 727.674 2058.94 724.272 2067.27 718.641C2075.6 713.127 2082.52 705.619 2088.15 697.524C2093.78 689.311 2098.24 680.513 2101.76 671.245C2105.28 662.094 2108.09 652.591 2109.85 642.854C2110.67 638.044 2111.38 632.999 2111.49 628.072L2111.61 620.681C2111.73 618.217 2111.61 615.753 2111.61 613.289C2111.49 603.435 2111.14 593.697 2110.2 583.843C2109.27 574.105 2107.74 564.368 2105.39 554.748C2104.81 552.284 2104.1 549.938 2103.52 547.591C2102.81 545.245 2102.11 542.899 2101.29 540.552C2100.35 538.206 2099.53 535.977 2098.47 533.631C2097.65 532.34 2097.18 531.167 2096.6 530.111Z" fill="#EDCFC5"/>
<path d="M1905.37 495.385C1904.78 493.508 1904.07 491.631 1903.49 489.754C1901.96 487.642 1900.79 485.765 1900.2 484.592C1898.8 481.776 1898.56 479.195 1899.62 478.256C1894.92 464.296 1890.58 451.391 1890.11 449.866C1889.06 446.346 1886.24 444 1884.72 443.648C1883.19 443.296 1881.67 443.882 1881.67 443.882L1879.79 445.994C1879.79 445.994 1880.03 445.877 1880.38 445.759C1879.79 445.994 1879.44 446.698 1879.67 447.284L1890.82 481.893C1891.05 482.362 1891.4 482.714 1891.76 483.066C1893.75 485.53 1900.32 491.161 1905.37 495.385Z" fill="white"/>
<path d="M1906.54 554.042C1907.83 556.858 1909.24 559.674 1910.65 562.372C1912.17 565.188 1913.81 567.769 1915.34 570.584C1918.51 575.981 1921.91 581.26 1925.43 586.54C1932.47 596.981 1940.21 606.953 1948.78 616.221C1953.12 620.796 1957.69 625.255 1962.5 629.243C1963.79 630.182 1964.97 631.238 1966.14 632.176L1970.01 634.992L1974 637.69C1975.29 638.629 1976.7 639.333 1978.1 640.154C1983.62 643.204 1989.6 645.785 1995.94 647.193C1999.11 647.897 2002.27 648.249 2005.56 648.366C2007.2 648.366 2008.84 648.366 2010.37 648.249L2015.06 647.662L2017.41 647.428C2018.23 647.31 2018.93 647.076 2019.75 646.958L2024.45 646.02C2025.97 645.668 2027.5 645.199 2029.02 644.729C2030.55 644.26 2032.07 643.908 2033.6 643.204L2038.05 641.444C2039.46 640.74 2040.87 640.037 2042.4 639.333C2043.1 638.981 2043.8 638.629 2044.51 638.277L2046.5 636.986L2048.5 635.696L2049.55 635.109L2050.49 634.405L2054.36 631.59C2055.53 630.534 2056.71 629.478 2058 628.422C2059.29 627.366 2060.34 626.193 2061.4 625.02L2063.04 623.26C2063.63 622.673 2064.1 622.087 2064.57 621.5C2068.79 616.69 2072.31 611.294 2075.24 605.78C2078.29 600.149 2080.88 594.4 2082.87 588.417C2083.93 585.366 2084.86 582.434 2085.69 579.383C2086.16 577.858 2086.51 576.333 2086.86 574.808C2087.21 573.283 2087.45 571.758 2087.8 570.115C2088.85 563.897 2089.56 557.679 2090.03 551.344C2090.38 545.126 2090.5 538.791 2090.14 532.573C2089.79 545.126 2088.15 557.562 2085.22 569.646L2084.63 571.875C2084.4 572.579 2084.16 573.4 2084.04 574.104C2083.69 575.629 2083.34 577.154 2082.87 578.562C2082.17 581.612 2081.11 584.545 2080.17 587.478C2078.18 593.344 2075.71 598.975 2072.78 604.489C2069.85 609.886 2066.45 615.048 2062.46 619.74C2061.99 620.327 2061.52 620.914 2060.93 621.5L2059.29 623.143C2058.23 624.199 2057.18 625.372 2056 626.428C2054.83 627.484 2053.78 628.422 2052.6 629.478L2048.96 632.176L2048.03 632.88L2047.09 633.467L2045.09 634.64L2043.1 635.813C2042.4 636.165 2041.69 636.517 2041.1 636.869C2039.7 637.573 2038.41 638.277 2037 638.863L2032.66 640.506C2031.25 641.092 2029.73 641.562 2028.32 641.914C2026.79 642.383 2025.38 642.852 2023.86 643.204L2019.28 644.143C2018.58 644.26 2017.76 644.495 2017.05 644.612L2014.71 644.847L2010.13 645.433C2008.61 645.55 2007.08 645.55 2005.56 645.55C2002.51 645.433 1999.46 645.081 1996.52 644.495C1990.54 643.204 1984.91 640.858 1979.51 637.807C1978.22 636.986 1976.81 636.282 1975.52 635.461L1971.65 632.88L1967.9 630.065C1966.61 629.126 1965.55 628.07 1964.26 627.132C1959.57 623.143 1954.99 618.802 1950.77 614.344C1933.88 596.16 1920.38 574.808 1908.42 553.104L1908.3 552.869L1908.18 552.752L1895.98 541.255C1891.88 537.383 1887.77 533.629 1883.66 529.875C1884.25 530.462 1884.84 531.165 1885.42 531.752C1888.59 535.272 1891.88 538.674 1895.04 542.076L1906.54 554.042Z" fill="#EDCFC5"/>
<path d="M1849.64 670.655C1846.94 674.058 1843.77 677.108 1840.37 679.806C1838.61 681.097 1836.85 682.504 1834.97 683.678C1834.04 684.264 1833.1 684.851 1832.16 685.437L1829.23 687.08L1827.82 687.901L1826.29 688.605L1823.36 690.013C1821.37 690.951 1819.25 691.655 1817.26 692.594C1812.92 694.236 1808.7 696.7 1805.53 700.219C1802.36 703.739 1800.25 708.197 1799.31 712.772C1798.72 717.465 1799.08 722.041 1800.37 726.381C1800.25 721.923 1800.84 717.465 1802.13 713.359C1803.06 709.253 1804.82 705.264 1807.76 702.097C1810.57 698.929 1814.21 696.7 1818.32 695.175C1820.43 694.354 1822.54 693.532 1824.65 692.594L1827.7 691.069L1829.23 690.365L1830.75 689.543L1833.68 687.901C1834.62 687.315 1835.56 686.728 1836.62 686.024C1838.61 684.851 1840.37 683.443 1842.13 682.035C1845.65 679.102 1849.05 676.052 1851.87 672.415C1854.68 668.778 1857.15 664.789 1858.79 660.449C1859.96 655.991 1860.32 651.181 1859.38 646.84C1859.26 648.952 1859.02 650.946 1858.56 652.94C1857.97 655.287 1857.15 657.398 1856.09 659.51C1854.57 663.499 1852.34 667.253 1849.64 670.655Z" fill="#EDCFC5"/>
<path d="M2426.26 42.1853C2204.88 87.1181 2061.87 303.335 2106.92 524.949C2142.7 700.808 2286.06 827.394 2454.41 849.567H2560V37.3753C2516.71 31.7441 2471.54 33.0345 2426.26 42.1853Z" fill="#E5AA20"/>
<path d="M2042.51 729.785H1365V849.567H2042.51V729.785Z" fill="white"/>
<path d="M3273.71 642.148L3273.48 645.785C3273.48 645.903 3273.48 646.02 3273.48 646.255C3273.83 646.255 3274.07 646.254 3274.42 646.137C3274.18 644.847 3273.95 643.439 3273.71 642.148Z" fill="#E5AA20"/>
<path d="M3256.47 500.43C3256.47 500.43 3251.89 494.564 3248.49 489.754C3249.19 491.631 3249.78 493.508 3250.37 495.385C3253.77 498.201 3256.47 500.43 3256.47 500.43Z" fill="#E5AA20"/>
<path d="M3343.63 457.608L3353.25 456.552L3355.6 477.904C3360.29 480.955 3366.04 482.362 3372.03 481.776C3386.1 480.251 3396.31 467.58 3394.79 453.502L3394.32 449.044C3394.67 449.396 3395.14 449.631 3395.61 449.748C3398.07 450.335 3400.89 447.402 3401.82 443.296C3402.76 439.189 3401.47 435.435 3399.01 434.849C3397.6 434.497 3396.08 435.318 3394.79 436.843C3394.2 437.664 3392.79 437.312 3392.56 436.374C3389.51 424.173 3377.77 415.726 3364.87 417.134C3350.79 418.659 3340.58 431.329 3342.11 445.407L3343.63 457.608Z" fill="#1E2B3C"/>
<path d="M3326.04 717.704C3317.12 713.48 3308.79 707.732 3301.75 700.692C3294.71 693.653 3288.96 685.441 3284.5 676.525C3280.05 667.609 3277 658.223 3274.88 648.486C3274.77 647.665 3274.53 646.961 3274.42 646.14C3274.06 646.14 3273.83 646.14 3273.48 646.257C3273.24 650.598 3273.01 654.821 3272.66 659.162L3271.72 672.419L3269.72 699.05C3269.14 707.966 3268.43 716.765 3267.49 725.681C3268.08 716.765 3268.2 707.849 3268.55 699.05L3269.49 672.419L3269.96 659.045C3270.07 654.587 3270.31 650.129 3270.54 645.67L3271.95 619.039L3274.88 619.157C3274.77 623.849 3275 628.777 3275.47 633.587C3275.94 638.397 3276.64 643.207 3277.7 647.899C3279.7 657.402 3282.75 666.553 3287.09 675.235C3291.43 683.799 3296.94 691.894 3303.74 698.581C3310.55 705.385 3318.53 710.899 3327.21 715.005C3335.89 719.111 3345.28 721.81 3354.78 723.335C3359.59 724.156 3364.4 724.625 3369.21 724.86C3374.02 725.095 3378.95 725.212 3383.64 724.977C3393.14 724.391 3402.41 721.223 3410.39 715.827C3418.36 710.547 3424.93 703.391 3430.45 695.413C3435.96 687.436 3440.3 678.754 3443.82 669.721C3447.34 660.687 3450.04 651.302 3451.8 641.799C3452.62 636.989 3453.33 632.296 3453.33 627.486L3453.44 620.212C3453.56 617.749 3453.44 615.402 3453.44 612.939C3453.33 603.201 3452.97 593.464 3452.03 583.844C3451.1 574.224 3449.57 564.604 3447.23 555.101C3446.76 552.755 3445.93 550.408 3445.35 548.062C3444.64 545.716 3443.82 543.486 3443.12 541.14C3441.59 536.565 3439.83 531.989 3437.72 527.649C3435.61 523.308 3433.26 519.084 3430.45 515.096C3427.63 511.107 3424.46 507.47 3420.95 504.185C3419.54 502.894 3418.01 501.604 3416.37 500.548C3408.28 495.034 3400.53 493.04 3394.9 492.571C3358.3 490.224 3341.87 532.811 3351.38 577.509L3348.91 585.017L3348.09 584.43C3338.59 554.749 3318.64 518.615 3277.93 516.973C3277.47 515.565 3277.11 514.274 3276.64 513.453C3274.42 508.878 3267.85 493.04 3263.97 488.112C3260.1 483.185 3249.07 478.727 3246.14 477.671C3245.32 477.437 3244.73 477.436 3244.27 477.788C3243.21 478.727 3243.44 481.308 3244.85 484.124C3245.44 485.297 3246.73 487.174 3248.14 489.286C3251.54 494.096 3256.11 499.962 3256.11 499.962C3256.11 499.962 3253.42 497.733 3250.01 494.917C3244.97 490.694 3238.4 485.062 3236.29 482.833C3235.94 482.481 3235.58 482.012 3235.35 481.66C3232.77 477.788 3232.77 472.744 3230.77 468.872C3228.54 464.649 3222.68 464.297 3222.68 464.297C3220.1 467.23 3226.55 495.504 3226.55 495.504L3223.97 505.945L3228.54 529.291C3232.65 533.045 3236.76 536.917 3240.86 540.671L3253.06 552.168L3253.18 552.285L3253.3 552.52C3265.26 574.341 3278.76 595.576 3295.65 613.76C3299.87 618.335 3304.33 622.559 3309.14 626.548C3310.31 627.486 3311.49 628.542 3312.78 629.481L3316.53 632.296L3320.4 634.877C3321.69 635.698 3323.1 636.402 3324.39 637.224C3329.79 640.156 3335.42 642.62 3341.4 643.911C3344.34 644.615 3347.39 644.966 3350.44 644.966C3351.96 644.966 3353.49 644.966 3355.01 644.849L3359.59 644.263L3361.93 644.028C3362.76 643.911 3363.46 643.793 3364.16 643.559L3368.74 642.62C3370.26 642.268 3371.67 641.799 3373.2 641.33C3374.72 640.86 3376.13 640.508 3377.54 639.922L3381.88 638.279C3383.29 637.575 3384.58 636.872 3385.98 636.285C3386.69 635.933 3387.39 635.581 3387.98 635.229L3389.97 634.056L3391.97 632.883L3392.91 632.296L3393.85 631.592L3397.48 628.894C3398.65 627.955 3399.83 626.9 3400.88 625.844C3402.06 624.905 3403.11 623.732 3404.17 622.559L3405.81 620.916C3406.4 620.33 3406.75 619.743 3407.34 619.157C3411.33 614.464 3414.73 609.302 3417.66 603.905C3420.59 598.509 3423.06 592.76 3425.05 586.894C3425.99 583.961 3427.05 581.028 3427.75 577.978C3428.22 576.453 3428.45 574.928 3428.92 573.52C3429.16 572.816 3429.28 571.995 3429.51 571.291L3430.1 569.062C3433.03 556.978 3434.67 544.542 3435.02 531.989C3435.49 538.207 3435.38 544.542 3434.91 550.76C3434.55 556.978 3433.73 563.313 3432.68 569.531C3432.44 571.056 3432.09 572.699 3431.74 574.224C3431.39 575.749 3431.03 577.274 3430.57 578.799C3429.74 581.85 3428.81 584.9 3427.75 587.833C3425.76 593.816 3423.17 599.682 3420.12 605.196C3417.07 610.827 3413.55 616.106 3409.45 620.916C3408.98 621.503 3408.51 622.207 3407.92 622.676L3406.28 624.436C3405.11 625.609 3404.05 626.782 3402.88 627.838C3401.71 628.894 3400.53 629.95 3399.24 631.006L3395.37 633.821L3394.43 634.525L3393.38 635.112L3391.38 636.402L3389.39 637.693C3388.68 638.162 3387.98 638.397 3387.28 638.749C3385.87 639.453 3384.46 640.156 3382.93 640.86L3378.48 642.62C3376.95 643.207 3375.43 643.676 3373.9 644.145C3372.38 644.615 3370.85 645.084 3369.33 645.436L3364.63 646.374C3363.81 646.492 3363.11 646.726 3362.29 646.844L3359.94 647.078L3355.25 647.665C3353.6 647.782 3351.96 647.782 3350.44 647.782C3347.27 647.665 3343.99 647.313 3340.82 646.609C3334.48 645.201 3328.62 642.737 3322.98 639.57C3321.58 638.749 3320.17 638.045 3318.88 637.106L3314.89 634.408L3311.02 631.592C3309.73 630.654 3308.56 629.598 3307.38 628.659C3302.57 624.553 3298 620.212 3293.66 615.637C3285.09 606.369 3277.35 596.397 3270.31 585.956C3266.79 580.794 3263.39 575.397 3260.22 570C3258.58 567.302 3257.05 564.604 3255.53 561.788C3254.12 559.09 3252.71 556.274 3251.42 553.458L3240.16 541.375C3236.87 537.973 3233.71 534.453 3230.54 531.051C3206.72 551.112 3198.39 592.408 3204.26 646.257C3205.32 650.715 3204.96 655.408 3203.67 659.866C3202.03 664.207 3199.68 668.195 3196.75 671.832C3193.94 675.469 3190.53 678.637 3187.01 681.452C3185.14 682.86 3183.38 684.268 3181.5 685.441C3180.56 686.028 3179.62 686.732 3178.57 687.318L3175.63 688.961L3174.11 689.782L3172.58 690.486L3169.53 692.011C3167.42 692.95 3165.31 693.771 3163.2 694.592C3159.21 696.117 3155.46 698.346 3152.64 701.514C3149.82 704.681 3147.95 708.553 3147.01 712.776C3145.72 716.882 3145.13 721.34 3145.25 725.799C3143.96 721.458 3143.61 716.765 3144.19 712.19C3145.25 707.614 3147.24 703.156 3150.41 699.637C3153.58 696 3157.8 693.536 3162.14 692.011C3164.14 691.19 3166.25 690.369 3168.24 689.43L3171.18 688.022L3172.7 687.318L3174.11 686.497L3177.04 684.855C3177.98 684.268 3178.92 683.681 3179.86 683.095C3181.73 681.922 3183.49 680.631 3185.25 679.223C3188.66 676.408 3191.82 673.475 3194.52 670.073C3197.22 666.67 3199.45 662.916 3200.97 658.927C3202.03 656.816 3202.85 654.704 3203.44 652.358C3137.51 658.927 3077.09 665.145 3061.13 664.441C3047.64 663.737 3035.67 646.492 3033.68 620.799C3032.39 604.14 3001.18 597.922 3001.18 597.922V727.441L3361.11 727.206C3358.88 726.972 3356.54 726.62 3354.31 726.268C3344.57 724.743 3334.95 721.927 3326.04 717.704Z" fill="#1E2B3C"/>
<path d="M3441.6 530.111L3439.95 526.826C3437.61 522.485 3435.03 518.262 3432.09 514.273C3429.04 510.402 3425.76 506.647 3421.89 503.48C3418.13 500.312 3413.91 497.614 3409.33 495.737C3407.1 494.798 3404.76 493.977 3402.29 493.508C3399.95 493.039 3397.48 492.687 3395.02 492.804C3397.48 492.804 3399.83 493.273 3402.29 493.86C3404.64 494.446 3406.99 495.268 3409.1 496.324C3411.68 497.497 3414.14 499.022 3416.49 500.782C3418.13 501.955 3419.66 503.128 3421.06 504.418C3424.7 507.703 3427.75 511.34 3430.57 515.329C3433.38 519.318 3435.73 523.541 3437.84 527.882C3439.95 532.223 3441.59 536.798 3443.24 541.374C3443.94 543.72 3444.76 545.949 3445.47 548.295C3446.05 550.642 3446.87 552.988 3447.34 555.334C3449.57 564.72 3451.1 574.34 3452.15 584.077C3453.21 593.697 3453.56 603.435 3453.56 613.172C3453.56 615.636 3453.56 617.982 3453.56 620.446L3453.44 627.72C3453.44 632.53 3452.74 637.34 3451.92 642.032C3450.16 651.535 3447.46 660.921 3443.94 669.954C3440.42 678.988 3436.08 687.669 3430.57 695.647C3425.05 703.507 3418.48 710.663 3410.51 716.06C3402.53 721.339 3393.38 724.624 3383.76 725.211C3379.06 725.445 3374.14 725.328 3369.33 725.093C3364.52 724.859 3359.71 724.272 3354.9 723.568C3345.39 722.043 3336.01 719.345 3327.33 715.239C3318.65 711.133 3310.67 705.619 3303.86 698.814C3297.06 692.01 3291.55 684.032 3287.2 675.468C3282.86 666.786 3279.81 657.636 3277.82 648.133C3276.76 643.44 3276.06 638.63 3275.59 633.82C3275.12 629.01 3274.89 624.083 3275 619.39L3272.07 619.273L3270.66 645.904C3270.43 650.362 3270.19 654.82 3270.08 659.278L3269.61 672.652L3268.67 699.284C3268.32 708.2 3268.2 717.116 3267.61 725.915C3268.55 717.116 3269.14 708.2 3269.84 699.284L3271.84 672.652L3272.77 659.395C3273.13 655.055 3273.36 650.831 3273.6 646.49C3273.6 646.373 3273.6 646.256 3273.6 646.021L3273.83 642.384C3274.07 643.675 3274.3 644.965 3274.53 646.373C3274.65 647.194 3274.89 647.898 3275 648.72C3277.12 658.34 3280.17 667.842 3284.62 676.759C3289.08 685.675 3294.83 693.887 3301.87 700.926C3308.91 707.965 3317.24 713.714 3326.15 717.937C3335.19 722.161 3344.69 724.976 3354.55 726.501C3356.77 726.853 3359 727.205 3361.35 727.44C3364.05 727.792 3366.63 727.909 3369.33 728.144C3374.25 728.378 3379.18 728.496 3384.11 728.261C3394.08 727.674 3403.94 724.272 3412.27 718.641C3420.6 713.127 3427.52 705.619 3433.15 697.524C3438.78 689.311 3443.24 680.513 3446.76 671.245C3450.28 662.094 3453.09 652.591 3454.85 642.854C3455.67 638.044 3456.38 632.999 3456.49 628.072L3456.61 620.681C3456.73 618.217 3456.61 615.753 3456.61 613.289C3456.49 603.435 3456.14 593.697 3455.2 583.843C3454.27 574.105 3452.74 564.368 3450.39 554.748C3449.81 552.284 3449.1 549.938 3448.52 547.591C3447.81 545.245 3447.11 542.899 3446.29 540.552C3445.35 538.206 3444.53 535.977 3443.47 533.631C3442.65 532.34 3442.18 531.167 3441.6 530.111Z" fill="#EDCFC5"/>
<path d="M3250.37 495.385C3249.78 493.508 3249.07 491.631 3248.49 489.754C3246.96 487.642 3245.79 485.765 3245.2 484.592C3243.8 481.776 3243.56 479.195 3244.62 478.256C3239.92 464.296 3235.58 451.391 3235.11 449.866C3234.06 446.346 3231.24 444 3229.72 443.648C3228.19 443.296 3226.67 443.882 3226.67 443.882L3224.79 445.994C3224.79 445.994 3225.03 445.877 3225.38 445.759C3224.79 445.994 3224.44 446.698 3224.67 447.284L3235.82 481.893C3236.05 482.362 3236.4 482.714 3236.76 483.066C3238.75 485.53 3245.32 491.161 3250.37 495.385Z" fill="white"/>
<path d="M3251.54 554.042C3252.83 556.858 3254.24 559.674 3255.65 562.372C3257.17 565.188 3258.81 567.769 3260.34 570.584C3263.51 575.981 3266.91 581.26 3270.43 586.54C3277.47 596.981 3285.21 606.953 3293.78 616.221C3298.12 620.796 3302.69 625.255 3307.5 629.243C3308.79 630.182 3309.97 631.238 3311.14 632.176L3315.01 634.992L3319 637.69C3320.29 638.629 3321.7 639.333 3323.1 640.154C3328.62 643.204 3334.6 645.785 3340.94 647.193C3344.11 647.897 3347.27 648.249 3350.56 648.366C3352.2 648.366 3353.84 648.366 3355.37 648.249L3360.06 647.662L3362.41 647.428C3363.23 647.31 3363.93 647.076 3364.75 646.958L3369.45 646.02C3370.97 645.668 3372.5 645.199 3374.02 644.729C3375.55 644.26 3377.07 643.908 3378.6 643.204L3383.05 641.444C3384.46 640.74 3385.87 640.037 3387.4 639.333C3388.1 638.981 3388.8 638.629 3389.51 638.277L3391.5 636.986L3393.5 635.696L3394.55 635.109L3395.49 634.405L3399.36 631.59C3400.53 630.534 3401.71 629.478 3403 628.422C3404.29 627.366 3405.34 626.193 3406.4 625.02L3408.04 623.26C3408.63 622.673 3409.1 622.087 3409.57 621.5C3413.79 616.69 3417.31 611.294 3420.24 605.78C3423.29 600.149 3425.88 594.4 3427.87 588.417C3428.93 585.366 3429.86 582.434 3430.69 579.383C3431.16 577.858 3431.51 576.333 3431.86 574.808C3432.21 573.283 3432.45 571.758 3432.8 570.115C3433.85 563.897 3434.56 557.679 3435.03 551.344C3435.38 545.126 3435.5 538.791 3435.14 532.573C3434.79 545.126 3433.15 557.562 3430.22 569.646L3429.63 571.875C3429.4 572.579 3429.16 573.4 3429.04 574.104C3428.69 575.629 3428.34 577.154 3427.87 578.562C3427.17 581.612 3426.11 584.545 3425.17 587.478C3423.18 593.344 3420.71 598.975 3417.78 604.489C3414.85 609.886 3411.45 615.048 3407.46 619.74C3406.99 620.327 3406.52 620.914 3405.93 621.5L3404.29 623.143C3403.23 624.199 3402.18 625.372 3401 626.428C3399.83 627.484 3398.78 628.422 3397.6 629.478L3393.96 632.176L3393.03 632.88L3392.09 633.467L3390.09 634.64L3388.1 635.813C3387.4 636.165 3386.69 636.517 3386.1 636.869C3384.7 637.573 3383.41 638.277 3382 638.863L3377.66 640.506C3376.25 641.092 3374.73 641.562 3373.32 641.914C3371.79 642.383 3370.38 642.852 3368.86 643.204L3364.28 644.143C3363.58 644.26 3362.76 644.495 3362.05 644.612L3359.71 644.847L3355.13 645.433C3353.61 645.55 3352.08 645.55 3350.56 645.55C3347.51 645.433 3344.46 645.081 3341.52 644.495C3335.54 643.204 3329.91 640.858 3324.51 637.807C3323.22 636.986 3321.81 636.282 3320.52 635.461L3316.65 632.88L3312.9 630.065C3311.61 629.126 3310.55 628.07 3309.26 627.132C3304.57 623.143 3299.99 618.802 3295.77 614.344C3278.88 596.16 3265.38 574.808 3253.42 553.104L3253.3 552.869L3253.18 552.752L3240.98 541.255C3236.88 537.383 3232.77 533.629 3228.66 529.875C3229.25 530.462 3229.84 531.165 3230.42 531.752C3233.59 535.272 3236.88 538.674 3240.04 542.076L3251.54 554.042Z" fill="#EDCFC5"/>
<path d="M3194.64 670.655C3191.94 674.058 3188.77 677.108 3185.37 679.806C3183.61 681.097 3181.85 682.504 3179.97 683.678C3179.04 684.264 3178.1 684.851 3177.16 685.437L3174.23 687.08L3172.82 687.901L3171.29 688.605L3168.36 690.013C3166.37 690.951 3164.25 691.655 3162.26 692.594C3157.92 694.236 3153.7 696.7 3150.53 700.219C3147.36 703.739 3145.25 708.197 3144.31 712.772C3143.72 717.465 3144.08 722.041 3145.37 726.381C3145.25 721.923 3145.84 717.465 3147.13 713.359C3148.06 709.253 3149.82 705.264 3152.76 702.097C3155.57 698.929 3159.21 696.7 3163.32 695.175C3165.43 694.354 3167.54 693.532 3169.65 692.594L3172.7 691.069L3174.23 690.365L3175.75 689.543L3178.68 687.901C3179.62 687.315 3180.56 686.728 3181.62 686.024C3183.61 684.851 3185.37 683.443 3187.13 682.035C3190.65 679.102 3194.05 676.052 3196.87 672.415C3199.68 668.778 3202.15 664.789 3203.79 660.449C3204.96 655.991 3205.32 651.181 3204.38 646.84C3204.26 648.952 3204.02 650.946 3203.56 652.94C3202.97 655.287 3202.15 657.398 3201.09 659.51C3199.57 663.499 3197.34 667.253 3194.64 670.655Z" fill="#EDCFC5"/>
<path d="M3771.26 42.1853C3549.88 87.1181 3406.87 303.335 3451.92 524.949C3487.7 700.808 3631.06 827.394 3799.41 849.567H3905V37.3753C3861.71 31.7441 3816.54 33.0345 3771.26 42.1853Z" fill="#1E98F5"/>
<path d="M3387.51 729.785H2710V849.567H3387.51V729.785Z" fill="white"/>
<path d="M4618.72 642.148L4618.48 645.785C4618.48 645.903 4618.48 646.02 4618.48 646.255C4618.83 646.255 4619.07 646.254 4619.42 646.137C4619.19 644.847 4618.95 643.439 4618.72 642.148Z" fill="#E5AA20"/>
<path d="M4601.47 500.43C4601.47 500.43 4596.9 494.564 4593.49 489.754C4594.2 491.631 4594.78 493.508 4595.37 495.385C4598.77 498.201 4601.47 500.43 4601.47 500.43Z" fill="#E5AA20"/>
<path d="M4688.64 457.608L4698.26 456.552L4700.6 477.904C4705.3 480.955 4711.05 482.362 4717.03 481.776C4731.11 480.251 4741.31 467.58 4739.79 453.502L4739.32 449.044C4739.67 449.396 4740.14 449.631 4740.61 449.748C4743.07 450.335 4745.89 447.402 4746.83 443.296C4747.77 439.189 4746.48 435.435 4744.01 434.849C4742.6 434.497 4741.08 435.318 4739.79 436.843C4739.2 437.664 4737.79 437.312 4737.56 436.374C4734.51 424.173 4722.78 415.726 4709.87 417.134C4695.79 418.659 4685.59 431.329 4687.11 445.407L4688.64 457.608Z" fill="#1E2B3C"/>
<path d="M4671.04 717.704C4662.12 713.48 4653.79 707.732 4646.75 700.692C4639.72 693.653 4633.97 685.441 4629.51 676.525C4625.05 667.609 4622 658.223 4619.89 648.486C4619.77 647.665 4619.54 646.961 4619.42 646.14C4619.07 646.14 4618.83 646.14 4618.48 646.257C4618.25 650.598 4618.01 654.821 4617.66 659.162L4616.72 672.419L4614.73 699.05C4614.14 707.966 4613.44 716.765 4612.5 725.681C4613.08 716.765 4613.2 707.849 4613.55 699.05L4614.49 672.419L4614.96 659.045C4615.08 654.587 4615.31 650.129 4615.55 645.67L4616.96 619.039L4619.89 619.157C4619.77 623.849 4620.01 628.777 4620.48 633.587C4620.94 638.397 4621.65 643.207 4622.7 647.899C4624.7 657.402 4627.75 666.553 4632.09 675.235C4636.43 683.799 4641.94 691.894 4648.75 698.581C4655.55 705.385 4663.53 710.899 4672.21 715.005C4680.89 719.111 4690.28 721.81 4699.78 723.335C4704.59 724.156 4709.4 724.625 4714.21 724.86C4719.02 725.095 4723.95 725.212 4728.64 724.977C4738.15 724.391 4747.41 721.223 4755.39 715.827C4763.37 710.547 4769.94 703.391 4775.45 695.413C4780.97 687.436 4785.31 678.754 4788.83 669.721C4792.35 660.687 4795.04 651.302 4796.8 641.799C4797.63 636.989 4798.33 632.296 4798.33 627.486L4798.45 620.212C4798.56 617.749 4798.45 615.402 4798.45 612.939C4798.33 603.201 4797.98 593.464 4797.04 583.844C4796.1 574.224 4794.58 564.604 4792.23 555.101C4791.76 552.755 4790.94 550.408 4790.35 548.062C4789.65 545.716 4788.83 543.486 4788.12 541.14C4786.6 536.565 4784.84 531.989 4782.73 527.649C4780.61 523.308 4778.27 519.084 4775.45 515.096C4772.64 511.107 4769.47 507.47 4765.95 504.185C4764.54 502.894 4763.02 501.604 4761.37 500.548C4753.28 495.034 4745.54 493.04 4739.91 492.571C4703.3 490.224 4686.88 532.811 4696.38 577.509L4693.92 585.017L4693.1 584.43C4683.59 554.749 4663.65 518.615 4622.94 516.973C4622.47 515.565 4622.12 514.274 4621.65 513.453C4619.42 508.878 4612.85 493.04 4608.98 488.112C4605.11 483.185 4594.08 478.727 4591.15 477.671C4590.32 477.437 4589.74 477.436 4589.27 477.788C4588.21 478.727 4588.45 481.308 4589.86 484.124C4590.44 485.297 4591.73 487.174 4593.14 489.286C4596.54 494.096 4601.12 499.962 4601.12 499.962C4601.12 499.962 4598.42 497.733 4595.02 494.917C4589.97 490.694 4583.4 485.062 4581.29 482.833C4580.94 482.481 4580.59 482.012 4580.35 481.66C4577.77 477.788 4577.77 472.744 4575.78 468.872C4573.55 464.649 4567.68 464.297 4567.68 464.297C4565.1 467.23 4571.55 495.504 4571.55 495.504L4568.97 505.945L4573.55 529.291C4577.65 533.045 4581.76 536.917 4585.87 540.671L4598.07 552.168L4598.18 552.285L4598.3 552.52C4610.27 574.341 4623.76 595.576 4640.65 613.76C4644.88 618.335 4649.34 622.559 4654.15 626.548C4655.32 627.486 4656.49 628.542 4657.78 629.481L4661.54 632.296L4665.41 634.877C4666.7 635.698 4668.11 636.402 4669.4 637.224C4674.79 640.156 4680.42 642.62 4686.41 643.911C4689.34 644.615 4692.39 644.966 4695.44 644.966C4696.97 644.966 4698.49 644.966 4700.02 644.849L4704.59 644.263L4706.94 644.028C4707.76 643.911 4708.46 643.793 4709.17 643.559L4713.74 642.62C4715.27 642.268 4716.68 641.799 4718.2 641.33C4719.73 640.86 4721.13 640.508 4722.54 639.922L4726.88 638.279C4728.29 637.575 4729.58 636.872 4730.99 636.285C4731.69 635.933 4732.4 635.581 4732.98 635.229L4734.98 634.056L4736.97 632.883L4737.91 632.296L4738.85 631.592L4742.49 628.894C4743.66 627.955 4744.83 626.9 4745.89 625.844C4747.06 624.905 4748.12 623.732 4749.17 622.559L4750.82 620.916C4751.4 620.33 4751.75 619.743 4752.34 619.157C4756.33 614.464 4759.73 609.302 4762.66 603.905C4765.6 598.509 4768.06 592.76 4770.06 586.894C4770.99 583.961 4772.05 581.028 4772.75 577.978C4773.22 576.453 4773.46 574.928 4773.93 573.52C4774.16 572.816 4774.28 571.995 4774.51 571.291L4775.1 569.062C4778.03 556.978 4779.68 544.542 4780.03 531.989C4780.5 538.207 4780.38 544.542 4779.91 550.76C4779.56 556.978 4778.74 563.313 4777.68 569.531C4777.45 571.056 4777.09 572.699 4776.74 574.224C4776.39 575.749 4776.04 577.274 4775.57 578.799C4774.75 581.85 4773.81 584.9 4772.75 587.833C4770.76 593.816 4768.18 599.682 4765.13 605.196C4762.08 610.827 4758.56 616.106 4754.45 620.916C4753.98 621.503 4753.51 622.207 4752.93 622.676L4751.28 624.436C4750.11 625.609 4749.06 626.782 4747.88 627.838C4746.71 628.894 4745.54 629.95 4744.25 631.006L4740.37 633.821L4739.44 634.525L4738.38 635.112L4736.39 636.402L4734.39 637.693C4733.69 638.162 4732.98 638.397 4732.28 638.749C4730.87 639.453 4729.46 640.156 4727.94 640.86L4723.48 642.62C4721.96 643.207 4720.43 643.676 4718.91 644.145C4717.38 644.615 4715.85 645.084 4714.33 645.436L4709.64 646.374C4708.82 646.492 4708.11 646.726 4707.29 646.844L4704.94 647.078L4700.25 647.665C4698.61 647.782 4696.97 647.782 4695.44 647.782C4692.27 647.665 4688.99 647.313 4685.82 646.609C4679.49 645.201 4673.62 642.737 4667.99 639.57C4666.58 638.749 4665.17 638.045 4663.88 637.106L4659.89 634.408L4656.02 631.592C4654.73 630.654 4653.56 629.598 4652.39 628.659C4647.58 624.553 4643 620.212 4638.66 615.637C4630.1 606.369 4622.35 596.397 4615.31 585.956C4611.79 580.794 4608.39 575.397 4605.22 570C4603.58 567.302 4602.06 564.604 4600.53 561.788C4599.12 559.09 4597.72 556.274 4596.42 553.458L4585.16 541.375C4581.88 537.973 4578.71 534.453 4575.54 531.051C4551.73 551.112 4543.4 592.408 4549.26 646.257C4550.32 650.715 4549.97 655.408 4548.68 659.866C4547.03 664.207 4544.69 668.195 4541.76 671.832C4538.94 675.469 4535.54 678.637 4532.02 681.452C4530.14 682.86 4528.38 684.268 4526.5 685.441C4525.57 686.028 4524.63 686.732 4523.57 687.318L4520.64 688.961L4519.11 689.782L4517.59 690.486L4514.54 692.011C4512.43 692.95 4510.31 693.771 4508.2 694.592C4504.21 696.117 4500.46 698.346 4497.64 701.514C4494.83 704.681 4492.95 708.553 4492.01 712.776C4490.72 716.882 4490.13 721.34 4490.25 725.799C4488.96 721.458 4488.61 716.765 4489.2 712.19C4490.25 707.614 4492.25 703.156 4495.41 699.637C4498.58 696 4502.81 693.536 4507.15 692.011C4509.14 691.19 4511.25 690.369 4513.25 689.43L4516.18 688.022L4517.71 687.318L4519.11 686.497L4522.05 684.855C4522.98 684.268 4523.92 683.681 4524.86 683.095C4526.74 681.922 4528.5 680.631 4530.26 679.223C4533.66 676.408 4536.83 673.475 4539.53 670.073C4542.22 666.67 4544.45 662.916 4545.98 658.927C4547.03 656.816 4547.86 654.704 4548.44 652.358C4482.51 658.927 4422.09 665.145 4406.14 664.441C4392.64 663.737 4380.68 646.492 4378.68 620.799C4377.39 604.14 4346.19 597.922 4346.19 597.922V727.441L4706.12 727.206C4703.89 726.972 4701.54 726.62 4699.31 726.268C4689.58 724.743 4679.96 721.927 4671.04 717.704Z" fill="#1E2B3C"/>
<path d="M4786.6 530.111L4784.96 526.826C4782.61 522.485 4780.03 518.262 4777.1 514.273C4774.05 510.402 4770.76 506.647 4766.89 503.48C4763.14 500.312 4758.91 497.614 4754.34 495.737C4752.11 494.798 4749.76 493.977 4747.3 493.508C4744.95 493.039 4742.49 492.687 4740.02 492.804C4742.49 492.804 4744.83 493.273 4747.3 493.86C4749.64 494.446 4751.99 495.268 4754.1 496.324C4756.68 497.497 4759.15 499.022 4761.49 500.782C4763.14 501.955 4764.66 503.128 4766.07 504.418C4769.71 507.703 4772.76 511.34 4775.57 515.329C4778.39 519.318 4780.73 523.541 4782.85 527.882C4784.96 532.223 4786.6 536.798 4788.24 541.374C4788.95 543.72 4789.77 545.949 4790.47 548.295C4791.06 550.642 4791.88 552.988 4792.35 555.334C4794.58 564.72 4796.1 574.34 4797.16 584.077C4798.21 593.697 4798.57 603.435 4798.57 613.172C4798.57 615.636 4798.57 617.982 4798.57 620.446L4798.45 627.72C4798.45 632.53 4797.74 637.34 4796.92 642.032C4795.16 651.535 4792.46 660.921 4788.95 669.954C4785.43 678.988 4781.09 687.669 4775.57 695.647C4770.06 703.507 4763.49 710.663 4755.51 716.06C4747.53 721.339 4738.38 724.624 4728.76 725.211C4724.07 725.445 4719.14 725.328 4714.33 725.093C4709.52 724.859 4704.71 724.272 4699.9 723.568C4690.4 722.043 4681.01 719.345 4672.33 715.239C4663.65 711.133 4655.67 705.619 4648.87 698.814C4642.06 692.01 4636.55 684.032 4632.21 675.468C4627.87 666.786 4624.82 657.636 4622.82 648.133C4621.77 643.44 4621.06 638.63 4620.59 633.82C4620.12 629.01 4619.89 624.083 4620.01 619.39L4617.07 619.273L4615.67 645.904C4615.43 650.362 4615.2 654.82 4615.08 659.278L4614.61 672.652L4613.67 699.284C4613.32 708.2 4613.2 717.116 4612.62 725.915C4613.56 717.116 4614.14 708.2 4614.85 699.284L4616.84 672.652L4617.78 659.395C4618.13 655.055 4618.37 650.831 4618.6 646.49C4618.6 646.373 4618.6 646.256 4618.6 646.021L4618.83 642.384C4619.07 643.675 4619.3 644.965 4619.54 646.373C4619.66 647.194 4619.89 647.898 4620.01 648.72C4622.12 658.34 4625.17 667.842 4629.63 676.759C4634.09 685.675 4639.83 693.887 4646.87 700.926C4653.91 707.965 4662.24 713.714 4671.16 717.937C4680.19 722.161 4689.69 724.976 4699.55 726.501C4701.78 726.853 4704.01 727.205 4706.35 727.44C4709.05 727.792 4711.63 727.909 4714.33 728.144C4719.26 728.378 4724.19 728.496 4729.11 728.261C4739.09 727.674 4748.94 724.272 4757.27 718.641C4765.6 713.127 4772.52 705.619 4778.15 697.524C4783.78 689.311 4788.24 680.513 4791.76 671.245C4795.28 662.094 4798.1 652.591 4799.86 642.854C4800.68 638.044 4801.38 632.999 4801.5 628.072L4801.62 620.681C4801.73 618.217 4801.62 615.753 4801.62 613.289C4801.5 603.435 4801.15 593.697 4800.21 583.843C4799.27 574.105 4797.74 564.368 4795.4 554.748C4794.81 552.284 4794.11 549.938 4793.52 547.591C4792.82 545.245 4792.11 542.899 4791.29 540.552C4790.35 538.206 4789.53 535.977 4788.48 533.631C4787.65 532.34 4787.19 531.167 4786.6 530.111Z" fill="#EDCFC5"/>
<path d="M4595.37 495.385C4594.78 493.508 4594.08 491.631 4593.49 489.754C4591.97 487.642 4590.79 485.765 4590.21 484.592C4588.8 481.776 4588.57 479.195 4589.62 478.256C4584.93 464.296 4580.59 451.391 4580.12 449.866C4579.06 446.346 4576.25 444 4574.72 443.648C4573.2 443.296 4571.67 443.882 4571.67 443.882L4569.79 445.994C4569.79 445.994 4570.03 445.877 4570.38 445.759C4569.79 445.994 4569.44 446.698 4569.68 447.284L4580.82 481.893C4581.06 482.362 4581.41 482.714 4581.76 483.066C4583.75 485.53 4590.32 491.161 4595.37 495.385Z" fill="white"/>
<path d="M4596.54 554.042C4597.84 556.858 4599.24 559.674 4600.65 562.372C4602.18 565.188 4603.82 567.769 4605.34 570.584C4608.51 575.981 4611.91 581.26 4615.43 586.54C4622.47 596.981 4630.22 606.953 4638.78 616.221C4643.12 620.796 4647.7 625.255 4652.51 629.243C4653.8 630.182 4654.97 631.238 4656.14 632.176L4660.01 634.992L4664 637.69C4665.29 638.629 4666.7 639.333 4668.11 640.154C4673.62 643.204 4679.61 645.785 4685.94 647.193C4689.11 647.897 4692.28 648.249 4695.56 648.366C4697.2 648.366 4698.85 648.366 4700.37 648.249L4705.06 647.662L4707.41 647.428C4708.23 647.31 4708.94 647.076 4709.76 646.958L4714.45 646.02C4715.97 645.668 4717.5 645.199 4719.02 644.729C4720.55 644.26 4722.08 643.908 4723.6 643.204L4728.06 641.444C4729.47 640.74 4730.87 640.037 4732.4 639.333C4733.1 638.981 4733.81 638.629 4734.51 638.277L4736.51 636.986L4738.5 635.696L4739.56 635.109L4740.49 634.405L4744.37 631.59C4745.54 630.534 4746.71 629.478 4748 628.422C4749.29 627.366 4750.35 626.193 4751.4 625.02L4753.05 623.26C4753.63 622.673 4754.1 622.087 4754.57 621.5C4758.8 616.69 4762.32 611.294 4765.25 605.78C4768.3 600.149 4770.88 594.4 4772.87 588.417C4773.93 585.366 4774.87 582.434 4775.69 579.383C4776.16 577.858 4776.51 576.333 4776.86 574.808C4777.21 573.283 4777.45 571.758 4777.8 570.115C4778.86 563.897 4779.56 557.679 4780.03 551.344C4780.38 545.126 4780.5 538.791 4780.15 532.573C4779.8 545.126 4778.15 557.562 4775.22 569.646L4774.63 571.875C4774.4 572.579 4774.16 573.4 4774.05 574.104C4773.7 575.629 4773.34 577.154 4772.87 578.562C4772.17 581.612 4771.11 584.545 4770.18 587.478C4768.18 593.344 4765.72 598.975 4762.78 604.489C4759.85 609.886 4756.45 615.048 4752.46 619.74C4751.99 620.327 4751.52 620.914 4750.94 621.5L4749.29 623.143C4748.24 624.199 4747.18 625.372 4746.01 626.428C4744.83 627.484 4743.78 628.422 4742.61 629.478L4738.97 632.176L4738.03 632.88L4737.09 633.467L4735.1 634.64L4733.1 635.813C4732.4 636.165 4731.7 636.517 4731.11 636.869C4729.7 637.573 4728.41 638.277 4727 638.863L4722.66 640.506C4721.25 641.092 4719.73 641.562 4718.32 641.914C4716.8 642.383 4715.39 642.852 4713.86 643.204L4709.29 644.143C4708.58 644.26 4707.76 644.495 4707.06 644.612L4704.71 644.847L4700.14 645.433C4698.61 645.55 4697.09 645.55 4695.56 645.55C4692.51 645.433 4689.46 645.081 4686.53 644.495C4680.54 643.204 4674.91 640.858 4669.52 637.807C4668.23 636.986 4666.82 636.282 4665.53 635.461L4661.66 632.88L4657.9 630.065C4656.61 629.126 4655.56 628.07 4654.27 627.132C4649.57 623.143 4645 618.802 4640.77 614.344C4623.88 596.16 4610.39 574.808 4598.42 553.104L4598.3 552.869L4598.19 552.752L4585.99 541.255C4581.88 537.383 4577.77 533.629 4573.67 529.875C4574.25 530.462 4574.84 531.165 4575.43 531.752C4578.6 535.272 4581.88 538.674 4585.05 542.076L4596.54 554.042Z" fill="#EDCFC5"/>
<path d="M4539.64 670.655C4536.95 674.058 4533.78 677.108 4530.38 679.806C4528.62 681.097 4526.86 682.504 4524.98 683.678C4524.04 684.264 4523.1 684.851 4522.16 685.437L4519.23 687.08L4517.82 687.901L4516.3 688.605L4513.36 690.013C4511.37 690.951 4509.26 691.655 4507.26 692.594C4502.92 694.236 4498.7 696.7 4495.53 700.219C4492.36 703.739 4490.25 708.197 4489.31 712.772C4488.73 717.465 4489.08 722.041 4490.37 726.381C4490.25 721.923 4490.84 717.465 4492.13 713.359C4493.07 709.253 4494.83 705.264 4497.76 702.097C4500.58 698.929 4504.21 696.7 4508.32 695.175C4510.43 694.354 4512.54 693.532 4514.65 692.594L4517.71 691.069L4519.23 690.365L4520.76 689.543L4523.69 687.901C4524.63 687.315 4525.57 686.728 4526.62 686.024C4528.62 684.851 4530.38 683.443 4532.14 682.035C4535.65 679.102 4539.06 676.052 4541.87 672.415C4544.69 668.778 4547.15 664.789 4548.79 660.449C4549.97 655.991 4550.32 651.181 4549.38 646.84C4549.26 648.952 4549.03 650.946 4548.56 652.94C4547.97 655.287 4547.15 657.398 4546.1 659.51C4544.57 663.499 4542.34 667.253 4539.64 670.655Z" fill="#EDCFC5"/>
<path d="M5116.26 42.1853C4894.88 87.1181 4751.87 303.335 4796.92 524.949C4832.71 700.808 4976.07 827.394 5144.42 849.567H5250V37.3753C5206.71 31.7441 5161.55 33.0345 5116.26 42.1853Z" fill="white"/>
<path d="M4732.51 729.785H4055V849.567H4732.51V729.785Z" fill="white"/>
<rect x="0.5" y="0.5" width="5269" height="883" rx="4.5" stroke="#7B61FF" stroke-dasharray="10 5"/>
</svg>
