<svg width="1195" height="844" viewBox="0 0 1195 844" fill="none" xmlns="http://www.w3.org/2000/svg">
<path d="M562.815 669.473C597.011 684.855 631.843 705.958 631.462 715.238C631.207 721.34 619.003 723.373 604.893 717.398C587.985 710.152 579.468 712.441 572.985 719.051C564.976 727.06 595.486 759.985 596.248 760.748H599.808L614.046 760.62C614.046 760.62 614.046 760.621 613.919 760.748H659.047V610.869C676.845 624.09 696.167 635.277 716.761 644.049C746.127 656.634 777.908 664.389 811.341 666.422C817.062 666.804 822.782 666.931 828.63 666.931C843.122 666.931 857.36 665.787 871.216 663.753C905.412 658.541 937.702 647.354 966.813 631.082C1004.19 610.234 1036.35 581.249 1060.88 546.545C1058.72 544.511 1056.94 542.604 1056.05 541.333C1051.99 535.612 1048.81 526.841 1052.75 522.391C1055.29 519.467 1062.41 523.663 1068.51 528.494C1058.34 517.688 1042.45 499.509 1048.81 490.483C1053.26 484.127 1068 495.06 1080.46 505.484C1070.55 495.441 1056.31 477.771 1061.52 472.177C1069.02 463.914 1084.15 476.881 1092.03 482.475C1092.54 482.856 1092.92 483.11 1093.43 483.491C1091.9 481.203 1090.89 477.771 1091.9 472.686C1094.32 460.355 1102.2 440.143 1102.2 440.143C1102.2 440.143 1104.36 440.778 1106.78 442.176C1110.84 423.108 1113.01 403.277 1113.01 382.937C1113.01 255.687 1029.36 148.013 914.057 111.783C899.819 107.333 885.073 103.901 869.945 101.74C856.597 99.8331 842.868 98.8164 828.884 98.8164C729.474 98.8164 642.013 149.92 591.163 227.211C594.087 228.101 596.375 229.372 596.375 229.372C596.375 229.372 586.841 248.949 579.468 258.992C576.417 263.187 573.239 264.839 570.569 265.221C571.078 265.348 571.713 265.348 572.222 265.475C581.629 267.382 601.46 269.67 600.571 280.73C599.935 288.357 577.434 289.883 563.196 289.502C579.341 291.536 597.265 294.968 595.74 302.595C593.452 313.4 569.298 314.163 554.425 314.036C562.052 315.307 569.934 317.723 569.552 321.536C568.917 327.511 560.272 331.071 553.408 331.961C552.391 332.088 550.865 332.215 549.086 332.088C547.814 339.08 546.797 346.326 546.035 353.572C545.399 353.572 544.891 353.444 544.382 353.19C537.39 350.012 538.916 340.224 541.458 331.452C534.975 330.435 528.11 328.401 525.059 324.842C513.745 325.096 501.541 324.333 501.541 324.333H423.996C463.023 422.6 520.229 599.936 524.805 616.971C526.585 624.344 536.755 657.778 562.815 669.473Z" fill="#1E98F5"/>
<path d="M259.375 351.032C182.211 377.473 264.46 443.323 276.028 543.751C284.164 614.431 261.155 713.079 256.07 760.623H495.825C488.324 741.554 485.909 710.537 476.756 691.214C426.797 586.083 336.793 324.463 259.375 351.032Z" fill="#1E98F5"/>
<path d="M410.903 260.645C414.336 266.238 419.42 270.179 425.141 272.213L436.455 265.221C435.819 265.094 435.311 264.967 434.675 264.713C434.421 264.204 434.294 263.823 434.04 263.314C433.658 262.297 433.404 261.28 433.277 260.263C433.15 259.246 433.023 258.229 433.023 257.212C433.023 256.703 433.15 256.195 433.15 255.687C433.658 255.178 434.294 254.797 434.929 254.543C435.438 255.178 435.819 255.687 436.328 256.195C436.201 256.577 436.201 257.085 436.201 257.466C436.201 258.356 436.201 259.119 436.328 260.009C436.455 260.772 436.709 261.661 436.964 262.424C437.091 262.805 437.218 263.187 437.472 263.568L436.836 265.094L444.845 260.136L450.439 269.035L461.625 262.17C474.719 254.034 478.787 236.873 470.651 223.906C463.278 211.956 448.278 207.507 435.819 212.973C434.802 213.482 433.658 212.464 433.913 211.448C434.421 209.414 434.04 207.507 432.896 206.49C430.734 204.71 426.667 206.236 423.87 209.795C421.073 213.355 420.438 217.55 422.471 219.329C422.853 219.711 423.488 219.838 423.997 219.965L419.929 222.507C406.835 230.389 402.895 247.551 410.903 260.645Z" fill="#1E2B3C"/>
<path d="M437.089 262.171C436.835 261.408 436.581 260.645 436.454 259.755C436.326 258.992 436.199 258.103 436.327 257.213C436.327 256.831 436.326 256.323 436.454 255.941C436.072 255.433 435.691 254.925 435.055 254.289C434.293 254.543 433.784 255.052 433.276 255.433C433.276 255.942 433.148 256.45 433.148 256.959C433.148 257.976 433.148 258.993 433.403 260.01C433.53 261.027 433.911 262.043 434.165 263.06C434.292 263.569 434.547 264.078 434.801 264.459C435.309 264.713 435.945 264.84 436.581 264.967L437.089 264.586L437.725 263.06C437.471 262.933 437.216 262.552 437.089 262.171Z" fill="#EDCFC5"/>
<path d="M81.5232 389.421C82.1588 396.412 83.8115 404.04 86.354 412.176C86.2268 411.795 86.0998 411.286 86.0998 410.905C82.0318 392.091 79.9978 372.768 80.6334 353.572C79.8707 366.03 80.5062 378.234 81.5232 389.421Z" fill="#1E2B3C"/>
<path d="M97.1617 437.473C100.34 446.499 104.026 455.27 108.094 464.042C116.23 481.331 125.891 497.984 136.824 513.62C142.29 521.502 148.138 529.129 154.113 536.502C160.215 543.875 166.571 551.122 173.436 557.605L173.944 558.113V558.749L176.741 700.746L178.139 771.808C178.393 777.783 178.266 783.63 178.266 789.605L178.139 807.402C178.139 819.225 178.012 831.047 177.885 842.87C177.249 831.047 176.741 819.225 176.232 807.402L175.47 789.605C175.215 783.63 174.834 777.783 174.834 771.808L173.436 700.746L170.639 559.384C163.774 552.774 157.545 545.655 151.571 538.409C145.469 530.909 139.621 523.281 134.027 515.4C122.968 499.509 113.179 482.856 105.043 465.313C100.975 456.542 97.2888 447.643 93.9836 438.49C92.331 433.914 90.8055 429.337 89.4072 424.761C88.5173 422.091 87.7545 419.295 87.1189 416.498L112.035 568.664V843.633H251.744C251.744 843.633 251.744 843.378 251.617 842.87H317.594C317.594 842.87 310.856 809.055 292.805 807.656C264.965 805.495 255.685 793.292 254.922 778.672C254.668 774.096 255.049 767.994 255.812 760.621C261.024 713.076 283.906 614.429 275.77 543.749C264.202 443.194 182.08 377.471 259.117 351.029C336.535 324.461 426.538 586.081 476.371 691.212C485.524 710.534 488.066 741.552 495.439 760.621C499.253 770.536 504.465 777.147 512.728 777.274C528.873 777.528 525.949 774.986 525.949 774.986C525.949 774.986 539.17 786.427 556.204 784.012C565.357 782.741 569.679 781.215 571.459 779.435C572.985 777.91 575.4 777.783 577.307 778.927C582.01 781.596 590.146 782.867 602.986 774.859C607.181 772.189 612.774 762.019 613.41 760.748C613.41 760.621 613.537 760.621 613.537 760.621L599.299 760.748H595.867C595.104 759.985 564.594 727.06 572.603 719.052C579.087 712.568 587.731 710.28 604.511 717.399C618.622 723.373 630.826 721.34 631.08 715.238C631.461 705.958 596.63 684.855 562.433 669.474C536.373 657.778 526.203 624.345 524.169 616.845C519.593 599.81 462.514 422.473 423.36 324.206C412.428 296.62 402.894 275.263 396.283 265.475C366.409 220.6 296.364 184.879 213.734 204.583C106.823 230.262 82.4153 296.747 80 353.445C80.6356 372.64 83.3052 391.709 88.263 410.142C91.314 419.295 93.8565 428.575 97.1617 437.473Z" fill="#1E2B3C"/>
<path d="M85.9737 410.778C86.1008 411.16 86.228 411.668 86.228 412.05C86.6094 413.575 86.8636 414.973 87.2449 416.499C87.8805 419.296 88.6433 422.092 89.5332 424.762C90.9316 429.338 92.457 434.042 94.1096 438.491C97.2877 447.644 101.102 456.543 105.169 465.314C113.305 482.857 123.221 499.51 134.153 515.401C139.62 523.282 145.468 531.037 151.697 538.41C157.671 545.656 163.9 552.648 170.765 559.386L173.562 700.747L174.96 771.809C174.96 777.784 175.341 783.631 175.596 789.606L176.359 807.403C176.867 819.226 177.375 831.048 178.011 842.871C178.138 831.048 178.138 819.226 178.265 807.403L178.393 789.606C178.393 783.631 178.52 777.784 178.265 771.809L176.867 700.747L174.07 558.75V558.114L173.562 557.606C166.824 550.996 160.341 543.749 154.239 536.503C148.137 529.13 142.417 521.503 136.95 513.621C126.018 497.858 116.356 481.332 108.22 464.043C104.152 455.399 100.466 446.5 97.2877 437.474C93.9825 428.449 91.5672 419.296 88.8976 410.016C83.9398 391.583 81.1431 372.514 80.6346 353.318V353.446C79.8718 372.641 81.9057 391.964 85.9737 410.778Z" fill="#EDCFC5"/>
<path d="M524.929 324.587C527.98 328.146 534.844 330.308 541.328 331.198C538.785 339.969 537.132 349.758 544.251 352.936C544.76 353.19 545.395 353.317 545.904 353.317C546.667 346.071 547.684 338.952 548.955 331.833C550.735 331.833 552.133 331.833 553.277 331.706C560.269 330.816 568.786 327.13 569.422 321.282C569.803 317.468 561.921 315.18 554.294 313.781C569.04 313.909 593.321 313.146 595.609 302.34C597.135 294.713 579.21 291.408 563.066 289.247C577.176 289.628 599.804 288.103 600.44 280.475C601.33 269.289 581.499 267.127 572.091 265.221C571.583 265.094 570.947 264.966 570.439 264.966C573.108 264.585 576.287 262.805 579.338 258.737C586.711 248.567 596.245 229.118 596.245 229.118C596.245 229.118 594.084 227.846 591.033 226.956C587.219 225.812 582.007 225.304 578.702 228.736C567.007 240.94 563.955 258.102 563.828 261.407C563.828 262.678 565.1 264.203 567.134 264.839C557.599 264.712 545.014 268.144 541.073 274.5C536.37 282.001 546.667 286.831 552.642 288.484C552.642 288.484 552.769 288.484 552.896 288.484C541.455 288.103 532.302 290.264 530.522 297.383C529.632 300.942 530.776 304.883 533.7 308.188C527.09 307.044 518.445 306.535 509.928 308.696C501.538 310.858 501.665 324.079 501.665 324.206C501.284 324.079 513.488 324.841 524.929 324.587Z" fill="#1E2B3C"/>
<path d="M910.625 779.308C909.862 793.928 900.455 806.004 872.742 808.292C854.691 809.691 847.953 843.506 847.953 843.506H987.662L966.559 630.955C937.448 647.227 905.286 658.414 870.962 663.626C888.251 716.001 911.769 756.808 910.625 779.308Z" fill="#1E2B3C"/>
<path d="M734.18 779.309C733.417 793.928 724.01 806.004 696.297 808.292C678.245 809.691 671.508 843.506 671.508 843.506H811.216V666.169C777.783 664.135 746.002 656.38 716.637 643.795C724.518 706.34 735.324 755.791 734.18 779.309Z" fill="#1E2B3C"/>
<path d="M918.253 104.793L920.414 100.471C920.542 100.979 920.796 101.488 921.177 101.869C923.084 103.776 927.279 102.759 930.584 99.5806C933.889 96.4025 934.906 92.2075 932.999 90.1736C931.855 89.0294 929.949 88.9024 928.042 89.6652C927.025 90.0466 926.008 89.0297 926.389 87.8856C930.711 74.919 924.864 60.4269 912.278 54.1979C898.549 47.3332 881.769 53.0536 875.031 66.783L869.184 78.4786L878.591 83.1818L874.395 91.572L875.921 90.8092C876.303 90.9363 876.684 91.0638 877.065 91.1909C877.828 91.4452 878.718 91.572 879.48 91.572C880.37 91.572 881.133 91.5719 882.023 91.4448C882.404 91.4448 882.786 91.318 883.294 91.1909C883.803 91.5723 884.311 91.9535 884.947 92.3349C884.693 93.0976 884.311 93.7333 883.93 94.2418C883.421 94.3689 882.913 94.4956 882.404 94.4956C881.387 94.6228 880.37 94.6229 879.226 94.6229C878.209 94.4958 877.192 94.3688 876.175 94.1145C875.667 93.9874 875.158 93.8604 874.65 93.6061C874.396 93.0976 874.141 92.5888 874.014 91.9532L869.565 100.979C884.693 103.14 899.439 106.572 913.677 111.022C915.457 109.496 916.982 107.335 918.253 104.793Z" fill="#1E2B3C"/>
<path d="M876.175 94.6217C877.192 94.876 878.209 95.1301 879.226 95.1301C880.243 95.2572 881.26 95.1306 882.404 95.0035C882.912 95.0035 883.421 94.8761 883.929 94.749C884.31 94.1134 884.692 93.6049 884.946 92.8421C884.31 92.3336 883.802 92.0795 883.293 91.6981C882.912 91.8253 882.531 91.8249 882.022 91.952C881.259 92.0791 880.37 92.0793 879.48 92.0793C878.59 92.0793 877.827 91.8253 877.065 91.6981C876.683 91.571 876.302 91.4435 875.921 91.3164L874.395 92.0793L874.141 92.5876C874.268 93.2233 874.522 93.7321 874.776 94.2406C875.158 94.2406 875.666 94.4946 876.175 94.6217Z" fill="#EDCFC5"/>
<path d="M1101.82 439.889C1101.82 439.889 1093.94 460.101 1091.52 472.432C1090.5 477.517 1091.39 480.95 1093.05 483.238C1092.54 482.857 1092.16 482.475 1091.65 482.221C1083.77 476.627 1068.77 463.661 1061.14 471.924C1055.93 477.645 1070.16 495.187 1080.08 505.23C1067.62 494.806 1052.88 484.001 1048.43 490.23C1042.07 499.255 1057.96 517.434 1068.13 528.239C1061.9 523.536 1054.91 519.341 1052.37 522.138C1048.43 526.587 1051.73 535.358 1055.67 541.079C1056.69 542.477 1058.34 544.257 1060.5 546.291C1067.62 552.902 1079.57 560.783 1084.66 554.554C1088.22 550.232 1083.51 542.731 1078.68 537.519C1085.8 541.079 1093.3 539.172 1096.35 534.341C1100.29 528.112 1095.72 519.977 1087.71 511.968L1087.83 512.095C1093.17 515.4 1103.72 519.595 1106.01 511.078C1107.92 503.832 1101.94 492.263 1095.33 485.399C1097.24 486.543 1099.28 486.543 1100.16 485.526C1102.45 483.238 1113 469.254 1113.89 452.347C1114.15 447.134 1109.83 443.702 1106.27 441.796C1103.98 440.524 1101.82 439.889 1101.82 439.889Z" fill="#1E2B3C"/>
<path d="M974.188 85.0884C979.4 85.9782 990.333 88.1392 994.401 92.5885C1003.81 102.886 1018.55 88.3939 1005.21 79.7495C994.655 72.8849 979.4 80.1305 973.807 83.1815C973.044 83.5629 973.171 84.8341 974.188 85.0884Z" fill="#1E2B3C"/>
<path d="M840.578 9.83093C844.01 9.83093 849.095 13.6445 851.383 15.4242C851.892 15.8056 852.527 15.4242 852.4 14.7886C851.638 11.2292 848.714 2.20353 841.849 0.296677C833.078 -1.99154 832.696 9.70381 840.578 9.83093Z" fill="#1E2B3C"/>
<path d="M940.115 28.6453C942.912 26.3571 949.141 21.9081 953.209 21.9081C962.743 21.9081 962.235 7.79736 951.683 10.4669C943.293 12.628 939.988 23.6874 938.971 27.8825C938.844 28.5181 939.607 29.0267 940.115 28.6453Z" fill="#1E2B3C"/>
</svg>
